SplineFontDB: 3.2
FontName: daech
FullName: daech Regular
FamilyName: daech
Weight: Regular
Copyright: 
Version: 1
ItalicAngle: 0
UnderlinePosition: -370
UnderlineWidth: 120
Ascent: 1638
Descent: 410
InvalidEm: 0
sfntRevision: 0x00010000
LayerCount: 2
Layer: 0 1 "Back" 1
Layer: 1 1 "Fore" 0
XUID: [1021 497 -1877248868 12277393]
BaseHoriz: 4 'hang' 'ideo' 'math' 'romn'
BaseScript: 'bopo' 3  -216 -216 -216 0
BaseScript: 'cyrl' 3  -216 -216 -216 0
BaseScript: 'grek' 3  -216 -216 -216 0
BaseScript: 'hang' 3  -216 -216 -216 0
BaseScript: 'hani' 3  -216 -216 -216 0
BaseScript: 'kana' 3  -216 -216 -216 0
BaseScript: 'latn' 3  -216 -216 -216 0
BaseScript: 'thai' 3  -216 -216 -216 0
StyleMap: 0x0040
FSType: 0
OS2Version: 3
OS2_WeightWidthSlopeOnly: 0
OS2_UseTypoMetrics: 0
CreationTime: 1496154258
ModificationTime: 1628523930
PfmFamily: 81
TTFWeight: 400
TTFWidth: 5
LineGap: 0
VLineGap: 0
Panose: 0 0 5 0 0 0 0 0 0 0
OS2TypoAscent: 1950
OS2TypoAOffset: 0
OS2TypoDescent: -494
OS2TypoDOffset: 0
OS2TypoLinegap: 0
OS2WinAscent: 1950
OS2WinAOffset: 0
OS2WinDescent: 494
OS2WinDOffset: 0
HheadAscent: 1950
HheadAOffset: 0
HheadDescent: -494
HheadDOffset: 0
OS2SubXSize: 1331
OS2SubYSize: 1228
OS2SubXOff: 0
OS2SubYOff: 153
OS2SupXSize: 1331
OS2SupYSize: 1228
OS2SupXOff: 0
OS2SupYOff: 716
OS2StrikeYSize: 120
OS2StrikeYPos: 624
OS2CapHeight: 1443
OS2XHeight: 1040
OS2Vendor: 'DECH'
Lookup: 4 0 1 "'liga' Standard Ligatures in Latin lookup 0" { "'liga' Standard Ligatures in Latin lookup 0-1"  } ['liga' ('DFLT' <'dflt' > 'latn' <'dflt' > ) ]
Lookup: 258 0 0 "'kern' Horizontal Kerning in Latin lookup 0" { "'kern' Horizontal Kerning in Latin lookup 0-1" [307,30,0] } ['kern' ('DFLT' <'dflt' > 'latn' <'dflt' > ) ]
MarkAttachClasses: 1
DEI: 91125
MacFeat: 0 0 0
MacName: 0 0 24 "All Typographic Features"
MacName: 0 1 24 "Fonctions typographiques"
MacName: 0 2 32 "Alle typografischen Mglichkeiten"
MacName: 0 3 21 "Funzioni Tipografiche"
MacName: 0 4 28 "Alle typografische kenmerken"
MacSetting: 0

StartChar: zero
Encoding: 48 48 1
Width: 1493
Flags: W
HStem: 598 248<1057.64 1230.36> 1320 20G<1413.75 1468>
VStem: 1020 248<635.129 807.84>
LayerCount: 2
Fore
SplineSet
1144 846 m 128,-1,1
 1195 846 1195 846 1231.5 809 c 128,-1,2
 1268 772 1268 772 1268 721 c 128,-1,3
 1268 670 1268 670 1231.5 634 c 128,-1,4
 1195 598 1195 598 1144 598 c 128,-1,5
 1093 598 1093 598 1056.5 634 c 128,-1,6
 1020 670 1020 670 1020 721 c 128,-1,7
 1020 772 1020 772 1056.5 809 c 128,-1,0
 1093 846 1093 846 1144 846 c 128,-1,1
25 808 m 1,8,-1
 1468 1340 l 1,9,-1
 1468 1150 l 1,10,-1
 244 722 l 1,11,-1
 1468 292 l 1,12,-1
 1468 104 l 1,13,-1
 25 636 l 1,14,-1
 25 808 l 1,8,-1
EndSplineSet
EndChar

StartChar: one
Encoding: 49 49 2
Width: 1248
Flags: W
HStem: 0 21G<25 242.16 1005.84 1223> 0 21G<25 242.16 1005.84 1223> 698 248<176.644 349.356 898.644 1071.36> 1423 20G<537 711> 1423 20G<537 711>
VStem: 139 248<735.644 908.356> 537 174<822 1443> 861 248<735.644 908.356>
CounterMasks: 1 07
LayerCount: 2
Fore
SplineSet
263 946 m 128,-1,1
 314 946 314 946 350.5 909.5 c 128,-1,2
 387 873 387 873 387 822 c 128,-1,3
 387 771 387 771 350.5 734.5 c 128,-1,4
 314 698 314 698 263 698 c 128,-1,5
 212 698 212 698 175.5 734.5 c 128,-1,6
 139 771 139 771 139 822 c 128,-1,7
 139 873 139 873 175.5 909.5 c 128,-1,0
 212 946 212 946 263 946 c 128,-1,1
985 946 m 128,-1,9
 1036 946 1036 946 1072.5 909.5 c 128,-1,10
 1109 873 1109 873 1109 822 c 128,-1,11
 1109 771 1109 771 1072.5 734.5 c 128,-1,12
 1036 698 1036 698 985 698 c 128,-1,13
 934 698 934 698 897.5 734.5 c 128,-1,14
 861 771 861 771 861 822 c 128,-1,15
 861 873 861 873 897.5 909.5 c 128,-1,8
 934 946 934 946 985 946 c 128,-1,9
711 1443 m 1,16,-1
 711 822 l 1,17,-1
 1223 0 l 1,18,-1
 1018 0 l 1,19,-1
 624 648 l 1,20,-1
 230 0 l 1,21,-1
 25 0 l 1,22,-1
 537 822 l 1,23,-1
 537 1443 l 1,24,-1
 711 1443 l 1,16,-1
EndSplineSet
EndChar

StartChar: two
Encoding: 50 50 3
Width: 1326
Flags: W
HStem: 0 166<457.738 868.262> 1447 20G<90 270 1056 1236>
VStem: 90 180<353.503 1467> 1056 180<353.503 1467>
LayerCount: 2
Fore
SplineSet
663 0 m 128,-1,1
 399 0 399 0 244.5 147.5 c 128,-1,2
 90 295 90 295 90 530 c 2,3,-1
 90 1467 l 1,4,-1
 270 1467 l 1,5,-1
 270 542 l 2,6,7
 270 375 270 375 374.5 270.5 c 128,-1,8
 479 166 479 166 663 166 c 128,-1,9
 847 166 847 166 951.5 270.5 c 128,-1,10
 1056 375 1056 375 1056 542 c 2,11,-1
 1056 1467 l 1,12,-1
 1236 1467 l 1,13,-1
 1236 530 l 2,14,15
 1236 295 1236 295 1081.5 147.5 c 128,-1,0
 927 0 927 0 663 0 c 128,-1,1
EndSplineSet
EndChar

StartChar: three
Encoding: 51 51 4
Width: 1224
Flags: W
HStem: -24 166<446.586 777.414> 598 248<525.644 698.356> 1301 166<446.586 777.414>
VStem: 80 148<420.255 1022.3> 488 248<635.129 807.84> 996 148<420.255 1022.3>
CounterMasks: 1 1c
LayerCount: 2
Fore
SplineSet
612 846 m 128,-1,1
 663 846 663 846 699.5 809 c 128,-1,2
 736 772 736 772 736 721 c 128,-1,3
 736 670 736 670 699.5 634 c 128,-1,4
 663 598 663 598 612 598 c 128,-1,5
 561 598 561 598 524.5 634 c 128,-1,6
 488 670 488 670 488 721 c 128,-1,7
 488 772 488 772 524.5 809 c 128,-1,0
 561 846 561 846 612 846 c 128,-1,1
612 1467 m 128,-1,9
 858 1467 858 1467 1001 1266 c 128,-1,10
 1144 1065 1144 1065 1144 721 c 128,-1,11
 1144 377 1144 377 1001 176.5 c 128,-1,12
 858 -24 858 -24 612 -24 c 128,-1,13
 366 -24 366 -24 223 176.5 c 128,-1,14
 80 377 80 377 80 721 c 128,-1,15
 80 1065 80 1065 223 1266 c 128,-1,8
 366 1467 366 1467 612 1467 c 128,-1,9
612 1301 m 128,-1,17
 435 1301 435 1301 331.5 1144.5 c 128,-1,18
 228 988 228 988 228 721.5 c 128,-1,19
 228 455 228 455 331.5 298.5 c 128,-1,20
 435 142 435 142 612 142 c 128,-1,21
 789 142 789 142 892.5 298.5 c 128,-1,22
 996 455 996 455 996 721.5 c 128,-1,23
 996 988 996 988 892.5 1144.5 c 128,-1,16
 789 1301 789 1301 612 1301 c 128,-1,17
EndSplineSet
EndChar

StartChar: four
Encoding: 52 52 5
Width: 1380
Flags: W
HStem: 0 21G<432.553 605.807 780 947.447> 0 21G<432.553 605.807 780 947.447> 1257 248<435.644 608.356> 1423 20G<45 237.907 841.482 1019 1141.91 1335> 1423 20G<45 237.907 841.482 1019 1141.91 1335>
VStem: 398 248<1294.13 1466.84>
LayerCount: 2
Fore
SplineSet
522 1505 m 128,-1,1
 573 1505 573 1505 609.5 1468 c 128,-1,2
 646 1431 646 1431 646 1380 c 128,-1,3
 646 1329 646 1329 609.5 1293 c 128,-1,4
 573 1257 573 1257 522 1257 c 128,-1,5
 471 1257 471 1257 434.5 1293 c 128,-1,6
 398 1329 398 1329 398 1380 c 128,-1,7
 398 1431 398 1431 434.5 1468 c 128,-1,0
 471 1505 471 1505 522 1505 c 128,-1,1
780 0 m 1,8,-1
 1147 1443 l 1,9,-1
 1335 1443 l 1,10,-1
 942 0 l 1,11,-1
 780 0 l 1,8,-1
1019 1443 m 1,12,-1
 600 0 l 1,13,-1
 438 0 l 1,14,-1
 45 1443 l 1,15,-1
 233 1443 l 1,16,-1
 522 265 l 1,17,-1
 847 1443 l 1,18,-1
 1019 1443 l 1,12,-1
EndSplineSet
EndChar

StartChar: five
Encoding: 53 53 6
Width: 1248
Flags: W
HStem: 0 21G<25 242.16 1005.84 1223> 0 21G<25 242.16 1005.84 1223> 698 248<176.644 349.356 898.644 1071.36> 1194 248<176.644 349.356 898.644 1071.36>
VStem: 139 248<735.644 908.356 1231.64 1404.36> 537 174<822 1443> 861 248<735.644 908.356 1231.64 1404.36>
CounterMasks: 1 0e
LayerCount: 2
Fore
SplineSet
263 1442 m 128,-1,1
 314 1442 314 1442 350.5 1405.5 c 128,-1,2
 387 1369 387 1369 387 1318 c 128,-1,3
 387 1267 387 1267 350.5 1230.5 c 128,-1,4
 314 1194 314 1194 263 1194 c 128,-1,5
 212 1194 212 1194 175.5 1230.5 c 128,-1,6
 139 1267 139 1267 139 1318 c 128,-1,7
 139 1369 139 1369 175.5 1405.5 c 128,-1,0
 212 1442 212 1442 263 1442 c 128,-1,1
985 1442 m 128,-1,9
 1036 1442 1036 1442 1072.5 1405.5 c 128,-1,10
 1109 1369 1109 1369 1109 1318 c 128,-1,11
 1109 1267 1109 1267 1072.5 1230.5 c 128,-1,12
 1036 1194 1036 1194 985 1194 c 128,-1,13
 934 1194 934 1194 897.5 1230.5 c 128,-1,14
 861 1267 861 1267 861 1318 c 128,-1,15
 861 1369 861 1369 897.5 1405.5 c 128,-1,8
 934 1442 934 1442 985 1442 c 128,-1,9
263 946 m 128,-1,17
 314 946 314 946 350.5 909.5 c 128,-1,18
 387 873 387 873 387 822 c 128,-1,19
 387 771 387 771 350.5 734.5 c 128,-1,20
 314 698 314 698 263 698 c 128,-1,21
 212 698 212 698 175.5 734.5 c 128,-1,22
 139 771 139 771 139 822 c 128,-1,23
 139 873 139 873 175.5 909.5 c 128,-1,16
 212 946 212 946 263 946 c 128,-1,17
985 946 m 128,-1,25
 1036 946 1036 946 1072.5 909.5 c 128,-1,26
 1109 873 1109 873 1109 822 c 128,-1,27
 1109 771 1109 771 1072.5 734.5 c 128,-1,28
 1036 698 1036 698 985 698 c 128,-1,29
 934 698 934 698 897.5 734.5 c 128,-1,30
 861 771 861 771 861 822 c 128,-1,31
 861 873 861 873 897.5 909.5 c 128,-1,24
 934 946 934 946 985 946 c 128,-1,25
711 1443 m 1,32,-1
 711 822 l 1,33,-1
 1223 0 l 1,34,-1
 1018 0 l 1,35,-1
 624 648 l 1,36,-1
 230 0 l 1,37,-1
 25 0 l 1,38,-1
 537 822 l 1,39,-1
 537 1443 l 1,40,-1
 711 1443 l 1,32,-1
EndSplineSet
EndChar

StartChar: six
Encoding: 54 54 7
Width: 448
Flags: W
HStem: 20 248<137.644 310.356> 516 248<137.644 310.356> 1012 248<137.644 310.356>
VStem: 100 248<57.6442 230.356 553.644 726.356 1049.64 1222.36>
CounterMasks: 1 e0
LayerCount: 2
Fore
SplineSet
224 1260 m 128,-1,1
 275 1260 275 1260 311.5 1223.5 c 128,-1,2
 348 1187 348 1187 348 1136 c 128,-1,3
 348 1085 348 1085 311.5 1048.5 c 128,-1,4
 275 1012 275 1012 224 1012 c 128,-1,5
 173 1012 173 1012 136.5 1048.5 c 128,-1,6
 100 1085 100 1085 100 1136 c 128,-1,7
 100 1187 100 1187 136.5 1223.5 c 128,-1,0
 173 1260 173 1260 224 1260 c 128,-1,1
224 268 m 128,-1,9
 275 268 275 268 311.5 231.5 c 128,-1,10
 348 195 348 195 348 144 c 128,-1,11
 348 93 348 93 311.5 56.5 c 128,-1,12
 275 20 275 20 224 20 c 128,-1,13
 173 20 173 20 136.5 56.5 c 128,-1,14
 100 93 100 93 100 144 c 128,-1,15
 100 195 100 195 136.5 231.5 c 128,-1,8
 173 268 173 268 224 268 c 128,-1,9
224 764 m 128,-1,17
 275 764 275 764 311.5 727.5 c 128,-1,18
 348 691 348 691 348 640 c 128,-1,19
 348 589 348 589 311.5 552.5 c 128,-1,20
 275 516 275 516 224 516 c 128,-1,21
 173 516 173 516 136.5 552.5 c 128,-1,22
 100 589 100 589 100 640 c 128,-1,23
 100 691 100 691 136.5 727.5 c 128,-1,16
 173 764 173 764 224 764 c 128,-1,17
EndSplineSet
EndChar

StartChar: seven
Encoding: 55 55 8
Width: 1326
Flags: W
HStem: 0 166<457.738 868.262> 414 248<576.644 749.356> 1447 20G<90 270 1056 1236>
VStem: 90 180<353.503 1467> 539 248<451.129 623.84> 1056 180<353.503 1467>
CounterMasks: 1 1c
LayerCount: 2
Fore
SplineSet
663 662 m 132,-1,1
 714 662 714 662 750.5 625 c 132,-1,2
 787 588 787 588 787 537 c 132,-1,3
 787 486 787 486 750.5 450 c 132,-1,4
 714 414 714 414 663 414 c 132,-1,5
 612 414 612 414 575.5 450 c 132,-1,6
 539 486 539 486 539 537 c 132,-1,7
 539 588 539 588 575.5 625 c 132,-1,0
 612 662 612 662 663 662 c 132,-1,1
663 0 m 128,-1,9
 399 0 399 0 244.5 147.5 c 128,-1,10
 90 295 90 295 90 530 c 2,11,-1
 90 1467 l 1,12,-1
 270 1467 l 1,13,-1
 270 542 l 2,14,15
 270 375 270 375 374.5 270.5 c 128,-1,16
 479 166 479 166 663 166 c 128,-1,17
 847 166 847 166 951.5 270.5 c 128,-1,18
 1056 375 1056 375 1056 542 c 2,19,-1
 1056 1467 l 1,20,-1
 1236 1467 l 1,21,-1
 1236 530 l 2,22,23
 1236 295 1236 295 1081.5 147.5 c 128,-1,8
 927 0 927 0 663 0 c 128,-1,9
EndSplineSet
EndChar

StartChar: eight
Encoding: 56 56 9
Width: 1704
Flags: W
HStem: 0 180<302 1404> 519 166<302 495.831 1216.05 1404> 1263 180<302 761 946 1404>
VStem: 140 162<180 519 685 1263> 761 185<988.409 1263> 1404 160<180 519 685 1263>
LayerCount: 2
Fore
SplineSet
1404 685 m 1,0,-1
 1404 1263 l 1,1,-1
 946 1263 l 1,2,3
 946 1000 946 1000 1071 844 c 128,-1,4
 1196 688 1196 688 1404 685 c 1,0,-1
302 519 m 1,5,-1
 302 180 l 1,6,-1
 1404 180 l 1,7,-1
 1404 519 l 1,8,9
 1110 521 1110 521 936 720 c 0,10,11
 888 775 888 775 853 841 c 1,12,13
 818 775 818 775 770 720 c 0,14,15
 596 521 596 521 302 519 c 1,5,-1
302 685 m 1,16,17
 512 688 512 688 636.5 843 c 128,-1,18
 761 998 761 998 761 1263 c 1,19,-1
 302 1263 l 1,20,-1
 302 685 l 1,16,17
1564 1443 m 1,21,-1
 1564 0 l 1,22,-1
 140 0 l 1,23,-1
 140 1443 l 1,24,-1
 1564 1443 l 1,21,-1
EndSplineSet
EndChar

StartChar: nine
Encoding: 57 57 10
Width: 1326
Flags: W
HStem: 0 166<457.738 868.262> 414 248<576.644 749.356> 910 248<576.644 749.356> 1447 20G<90 270 1056 1236>
VStem: 90 180<353.503 1467> 539 248<451.129 623.84 947.129 1119.84> 1056 180<353.503 1467>
CounterMasks: 1 0e
LayerCount: 2
Fore
SplineSet
663 1158 m 128,-1,1
 714 1158 714 1158 750.5 1121 c 128,-1,2
 787 1084 787 1084 787 1033 c 128,-1,3
 787 982 787 982 750.5 946 c 128,-1,4
 714 910 714 910 663 910 c 128,-1,5
 612 910 612 910 575.5 946 c 128,-1,6
 539 982 539 982 539 1033 c 128,-1,7
 539 1084 539 1084 575.5 1121 c 128,-1,0
 612 1158 612 1158 663 1158 c 128,-1,1
663 662 m 128,-1,9
 714 662 714 662 750.5 625 c 128,-1,10
 787 588 787 588 787 537 c 128,-1,11
 787 486 787 486 750.5 450 c 128,-1,12
 714 414 714 414 663 414 c 128,-1,13
 612 414 612 414 575.5 450 c 128,-1,14
 539 486 539 486 539 537 c 128,-1,15
 539 588 539 588 575.5 625 c 128,-1,8
 612 662 612 662 663 662 c 128,-1,9
663 0 m 128,-1,17
 399 0 399 0 244.5 147.5 c 128,-1,18
 90 295 90 295 90 530 c 2,19,-1
 90 1467 l 1,20,-1
 270 1467 l 1,21,-1
 270 542 l 2,22,23
 270 375 270 375 374.5 270.5 c 128,-1,24
 479 166 479 166 663 166 c 128,-1,25
 847 166 847 166 951.5 270.5 c 128,-1,26
 1056 375 1056 375 1056 542 c 2,27,-1
 1056 1467 l 1,28,-1
 1236 1467 l 1,29,-1
 1236 530 l 2,30,31
 1236 295 1236 295 1081.5 147.5 c 128,-1,16
 927 0 927 0 663 0 c 128,-1,17
EndSplineSet
EndChar

StartChar: A
Encoding: 65 65 11
Width: 1267
Flags: W
HStem: 0 162<100 936> 1281 162<344 1139>
LayerCount: 2
Fore
SplineSet
1167 0 m 1,0,-1
 100 0 l 1,1,-1
 100 162 l 1,2,-1
 936 162 l 1,3,-1
 117 1322 l 1,4,-1
 117 1443 l 1,5,-1
 1139 1443 l 1,6,-1
 1139 1281 l 1,7,-1
 344 1281 l 1,8,-1
 1167 121 l 1,9,-1
 1167 0 l 1,0,-1
EndSplineSet
EndChar

StartChar: B
Encoding: 66 66 12
Width: 970
Flags: W
HStem: 0 162<320 920> 1423 20G<140 320> 1423 20G<140 320>
VStem: 140 180<162 1443>
LayerCount: 2
Fore
SplineSet
920 162 m 1,0,-1
 920 0 l 1,1,-1
 140 0 l 1,2,-1
 140 1443 l 1,3,-1
 320 1443 l 1,4,-1
 320 162 l 1,5,-1
 920 162 l 1,0,-1
EndSplineSet
EndChar

StartChar: C
Encoding: 67 67 13
Width: 1060
Flags: W
HStem: 0 162<320 740> 843 200<740 920> 1243 200<740 920>
VStem: 140 180<162 1443> 740 180<162 643 843 1043 1243 1443>
LayerCount: 2
Fore
SplineSet
920 1243 m 1,0,-1
 740 1243 l 1,1,-1
 740 1443 l 1,2,-1
 920 1443 l 1,3,-1
 920 1243 l 1,0,-1
920 843 m 1,4,-1
 740 843 l 1,5,-1
 740 1043 l 1,6,-1
 920 1043 l 1,7,-1
 920 843 l 1,4,-1
740 162 m 1,8,-1
 740 643 l 1,9,-1
 920 643 l 1,10,-1
 920 0 l 1,11,-1
 140 0 l 1,12,-1
 140 1443 l 1,13,-1
 320 1443 l 1,14,-1
 320 162 l 1,15,-1
 740 162 l 1,8,-1
EndSplineSet
EndChar

StartChar: D
Encoding: 68 68 14
Width: 880
Flags: W
HStem: 0 160<-25 350 530 905> 1283 160<39 350 530 841>
VStem: 350 180<160 1283>
LayerCount: 2
Fore
SplineSet
841 1443 m 1,0,-1
 841 1283 l 1,1,-1
 530 1283 l 1,2,-1
 530 160 l 1,3,-1
 905 160 l 1,4,-1
 905 0 l 1,5,-1
 -25 0 l 1,6,-1
 -25 160 l 1,7,-1
 350 160 l 1,8,-1
 350 1283 l 1,9,-1
 39 1283 l 1,10,-1
 39 1443 l 1,11,-1
 841 1443 l 1,0,-1
EndSplineSet
EndChar

StartChar: E
Encoding: 69 69 15
Width: 444
Flags: W
HStem: 0 21G<135 309> 0 21G<135 309> 1423 20G<135 309> 1423 20G<135 309>
VStem: 135 174<0 679 904 1443>
LayerCount: 2
Fore
SplineSet
444 976 m 1,0,-1
 444 836 l 1,1,-1
 309 763 l 1,2,-1
 309 0 l 1,3,-1
 135 0 l 1,4,-1
 135 679 l 1,5,-1
 0 606 l 5,6,-1
 0 747 l 5,7,-1
 135 819 l 1,8,-1
 135 1443 l 1,9,-1
 309 1443 l 1,10,-1
 309 904 l 1,11,-1
 444 976 l 1,0,-1
EndSplineSet
EndChar

StartChar: F
Encoding: 70 70 16
Width: 1320
Flags: W
HStem: 0 21G<45 178.807 301 478.518 1082.09 1275> 0 21G<45 178.807 301 478.518 1082.09 1275> 1423 20G<458.193 592 714.193 887.447> 1423 20G<458.193 592 714.193 887.447>
LayerCount: 2
Fore
SplineSet
592 1443 m 1,0,-1
 173 0 l 1,1,-1
 45 0 l 1,2,-1
 464 1443 l 1,3,-1
 592 1443 l 1,0,-1
301 0 m 1,4,-1
 720 1443 l 1,5,-1
 882 1443 l 1,6,-1
 1275 0 l 1,7,-1
 1087 0 l 1,8,-1
 798 1178 l 1,9,-1
 473 0 l 1,10,-1
 301 0 l 1,4,-1
EndSplineSet
Ligature2: "'liga' Standard Ligatures in Latin lookup 0-1" P h
Ligature2: "'liga' Standard Ligatures in Latin lookup 0-1" P H
LCarets2: 1 0
EndChar

StartChar: G
Encoding: 71 71 17
Width: 1486
Flags: W
HStem: 0 21G<656 830 1234 1408> 0 21G<656 830 1234 1408> 300 158<265 656 843 1234> 1423 20G<631.528 830 1209.53 1408> 1423 20G<631.528 830 1209.53 1408>
VStem: 656 174<0 300> 1234 174<0 300 458 630>
LayerCount: 2
Fore
SplineSet
1408 0 m 1,0,-1
 1234 0 l 1,1,-1
 1234 300 l 1,2,-1
 830 300 l 1,3,-1
 830 0 l 1,4,-1
 656 0 l 1,5,-1
 656 300 l 1,6,-1
 78 300 l 1,7,-1
 78 458 l 1,8,-1
 643 1443 l 1,9,-1
 830 1443 l 1,10,-1
 265 458 l 1,11,-1
 656 458 l 1,12,-1
 1221 1443 l 1,13,-1
 1408 1443 l 1,14,-1
 843 458 l 1,15,-1
 1234 458 l 1,16,-1
 1234 630 l 1,17,-1
 1408 804 l 1,18,-1
 1408 0 l 1,0,-1
EndSplineSet
EndChar

StartChar: H
Encoding: 72 72 18
Width: 1286
Flags: W
HStem: 0 21G<25 221.01 1064.99 1261> 0 21G<25 221.01 1064.99 1261> 1423 20G<549.626 736.374> 1423 20G<549.626 736.374>
LayerCount: 2
Fore
SplineSet
729 1443 m 1,0,-1
 1261 0 l 1,1,-1
 1072 0 l 1,2,-1
 643 1224 l 1,3,-1
 214 0 l 1,4,-1
 25 0 l 1,5,-1
 557 1443 l 1,6,-1
 729 1443 l 1,0,-1
EndSplineSet
EndChar

StartChar: I
Encoding: 73 73 19
Width: 554
Flags: W
HStem: 0 21G<187 367> 0 21G<187 367> 1281 162<25 187 367 529>
VStem: 25 162<1281 1443> 187 180<0 980> 367 162<1281 1443>
LayerCount: 2
Fore
SplineSet
529 1281 m 1,0,-1
 367 1281 l 1,1,-1
 367 1443 l 1,2,-1
 529 1443 l 1,3,-1
 529 1281 l 1,0,-1
187 1281 m 1,4,-1
 25 1281 l 1,5,-1
 25 1443 l 1,6,-1
 187 1443 l 1,7,-1
 187 1281 l 1,4,-1
367 980 m 1,8,-1
 367 0 l 1,9,-1
 187 0 l 1,10,-1
 187 980 l 1,11,-1
 367 980 l 1,8,-1
EndSplineSet
EndChar

StartChar: J
Encoding: 74 74 20
Width: 1224
Flags: W
HStem: 0 166<446.586 777.414> 1325 166<446.586 777.414>
VStem: 80 148<444.255 1046.3> 996 148<444.255 1046.3>
LayerCount: 2
Fore
SplineSet
612 1491 m 128,-1,1
 858 1491 858 1491 1001 1290 c 128,-1,2
 1144 1089 1144 1089 1144 745 c 128,-1,3
 1144 401 1144 401 1001 200.5 c 128,-1,4
 858 0 858 0 612 0 c 128,-1,5
 366 0 366 0 223 200.5 c 128,-1,6
 80 401 80 401 80 745 c 128,-1,7
 80 1089 80 1089 223 1290 c 128,-1,0
 366 1491 366 1491 612 1491 c 128,-1,1
612 1325 m 128,-1,9
 435 1325 435 1325 331.5 1168.5 c 128,-1,10
 228 1012 228 1012 228 745.5 c 128,-1,11
 228 479 228 479 331.5 322.5 c 128,-1,12
 435 166 435 166 612 166 c 128,-1,13
 789 166 789 166 892.5 322.5 c 128,-1,14
 996 479 996 479 996 745.5 c 128,-1,15
 996 1012 996 1012 892.5 1168.5 c 128,-1,8
 789 1325 789 1325 612 1325 c 128,-1,9
EndSplineSet
EndChar

StartChar: K
Encoding: 75 75 21
Width: 1320
Flags: W
HStem: 1422 21G<1141 1275 841 1019 45 238> 1422 21G<1141 1275 841 1019 45 238> 0 20G<728 862 433 606> 0 20G<728 862 433 606>
LayerCount: 2
Fore
SplineSet
728 0 m 1,0,-1
 1147 1443 l 1,1,-1
 1275 1443 l 1,2,-1
 856 0 l 1,3,-1
 728 0 l 1,0,-1
1019 1443 m 1,4,-1
 600 0 l 1,5,-1
 438 0 l 1,6,-1
 45 1443 l 1,7,-1
 233 1443 l 1,8,-1
 522 265 l 1,9,-1
 847 1443 l 1,10,-1
 1019 1443 l 1,4,-1
EndSplineSet
EndChar

StartChar: L
Encoding: 76 76 22
Width: 1399
Flags: W
HStem: 0 166<450.54 869.248> 1325 166<469.047 867.931>
VStem: 70 182<349.126 444 1012 1120.79> 1134 185<470.394 1018.88>
LayerCount: 2
Fore
SplineSet
669 0 m 0,0,1
 968 0 968 0 1143.5 201.5 c 128,-1,2
 1319 403 1319 403 1319 744.5 c 128,-1,3
 1319 1086 1319 1086 1142 1288.5 c 128,-1,4
 965 1491 965 1491 669 1491 c 0,5,6
 433 1491 433 1491 268.5 1359.5 c 128,-1,7
 104 1228 104 1228 70 1012 c 1,8,-1
 252 1012 l 1,9,10
 287 1154 287 1154 401 1239.5 c 128,-1,11
 515 1325 515 1325 669 1325 c 0,12,13
 880 1325 880 1325 1007 1167 c 128,-1,14
 1134 1009 1134 1009 1134 744.5 c 128,-1,15
 1134 480 1134 480 1008 323 c 128,-1,16
 882 166 882 166 668 166 c 0,17,18
 509 166 509 166 400 239 c 128,-1,19
 291 312 291 312 252 444 c 1,20,-1
 70 444 l 1,21,22
 120 230 120 230 275 115 c 128,-1,23
 430 0 430 0 669 0 c 0,0,1
EndSplineSet
EndChar

StartChar: M
Encoding: 77 77 23
Width: 620
Flags: W
HStem: 0 143<371.86 560> 411 143<24 169 343 555> 1423 20G<169 343> 1423 20G<169 343>
VStem: 169 174<172.285 411 554 1443>
LayerCount: 2
Fore
SplineSet
169 1443 m 1,0,-1
 343 1443 l 1,1,-1
 343 554 l 1,2,-1
 555 554 l 1,3,-1
 555 411 l 1,4,-1
 342 411 l 1,5,-1
 342 296 l 2,6,7
 342 143 342 143 481 143 c 0,8,9
 518 143 518 143 560 149 c 1,10,-1
 560 8 l 1,11,12
 510 0 510 0 454 0 c 0,13,14
 310 0 310 0 239.5 72.5 c 128,-1,15
 169 145 169 145 169 295 c 2,16,-1
 169 411 l 1,17,-1
 24 411 l 1,18,-1
 24 554 l 1,19,-1
 169 554 l 1,20,-1
 169 1443 l 1,0,-1
EndSplineSet
EndChar

StartChar: N
Encoding: 78 78 24
Width: 902
Flags: W
HStem: 0 162<50 852> 357 162<50 361 541 852> 1423 20G<361 541> 1423 20G<361 541>
VStem: 361 180<519 1443>
LayerCount: 2
Fore
SplineSet
852 162 m 1,0,-1
 852 0 l 1,1,-1
 50 0 l 1,2,-1
 50 162 l 1,3,-1
 852 162 l 1,0,-1
361 1443 m 1,4,-1
 541 1443 l 1,5,-1
 541 519 l 1,6,-1
 852 519 l 1,7,-1
 852 357 l 1,8,-1
 50 357 l 1,9,-1
 50 519 l 1,10,-1
 361 519 l 1,11,-1
 361 1443 l 1,4,-1
EndSplineSet
EndChar

StartChar: O
Encoding: 79 79 25
Width: 1100
Flags: W
HStem: 0 150<300 798> 1293 150<300 800>
VStem: 140 160<-170 0 150 1293> 800 160<-170 0 150 1293>
LayerCount: 2
Fore
SplineSet
960 1443 m 1,0,-1
 960 -170 l 1,1,-1
 798 -170 l 1,2,-1
 798 0 l 1,3,-1
 300 0 l 1,4,-1
 300 -170 l 1,5,-1
 140 -170 l 1,6,-1
 140 1443 l 1,7,8
 140 1443 140 1443 960 1443 c 1,0,-1
300 1293 m 1,9,-1
 300 150 l 1,10,-1
 800 150 l 1,11,-1
 800 1293 l 1,12,-1
 300 1293 l 1,9,-1
EndSplineSet
EndChar

StartChar: P
Encoding: 80 80 26
Width: 1556
Flags: W
HStem: 0 21G<40 295.575 1260.43 1516> 0 21G<40 295.575 1260.43 1516> 868 162<344 678 878 1212> 1281 162<40 678 878 1516>
VStem: 678 200<750 868 1030 1281>
LayerCount: 2
Fore
SplineSet
778 569 m 1,0,-1
 278 0 l 1,1,-1
 40 0 l 1,2,-1
 678 750 l 1,3,-1
 678 868 l 1,4,-1
 344 868 l 1,5,-1
 344 1030 l 1,6,-1
 678 1030 l 1,7,-1
 678 1281 l 1,8,-1
 40 1281 l 1,9,-1
 40 1443 l 1,10,-1
 1516 1443 l 1,11,-1
 1516 1281 l 1,12,-1
 878 1281 l 1,13,-1
 878 1030 l 1,14,-1
 1212 1030 l 1,15,-1
 1212 868 l 1,16,-1
 878 868 l 1,17,-1
 878 750 l 1,18,-1
 1516 0 l 1,19,-1
 1278 0 l 1,20,-1
 778 569 l 1,0,-1
EndSplineSet
EndChar

StartChar: Q
Encoding: 81 81 27
Width: 1854
Flags: W
HStem: 0 21G<25 221.022 1632.98 1829> 0 21G<25 221.022 1632.98 1829> 413 153<412 874 980 1442> 1423 20G<549.626 736.374 1117.63 1304.37> 1423 20G<549.626 736.374 1117.63 1304.37>
LayerCount: 2
Fore
SplineSet
643 1224 m 1,0,-1
 412 566 l 1,1,-1
 874 566 l 1,2,-1
 643 1224 l 1,0,-1
1211 1224 m 1,3,-1
 980 566 l 1,4,-1
 1442 566 l 1,5,-1
 1211 1224 l 1,3,-1
927 906 m 1,6,-1
 1125 1443 l 1,7,-1
 1297 1443 l 1,8,-1
 1829 0 l 1,9,-1
 1640 0 l 1,10,-1
 1495 413 l 1,11,-1
 359 413 l 1,12,-1
 214 0 l 1,13,-1
 25 0 l 1,14,-1
 557 1443 l 1,15,-1
 729 1443 l 1,16,-1
 927 906 l 1,6,-1
EndSplineSet
LCarets2: 1 927
EndChar

StartChar: R
Encoding: 82 82 28
Width: 1248
Flags: W
HStem: 0 21G<25 242.16 1005.84 1223> 0 21G<25 242.16 1005.84 1223> 1423 20G<537 711> 1423 20G<537 711>
VStem: 537 174<822 1443>
LayerCount: 2
Fore
SplineSet
711 1443 m 1,0,-1
 711 822 l 1,1,-1
 1223 0 l 1,2,-1
 1018 0 l 1,3,-1
 624 648 l 1,4,-1
 230 0 l 1,5,-1
 25 0 l 1,6,-1
 537 822 l 1,7,-1
 537 1443 l 1,8,-1
 711 1443 l 1,0,-1
EndSplineSet
EndChar

StartChar: S
Encoding: 83 83 29
Width: 1415
Flags: W
HStem: 0 166<526.918 927.882> 648 162<270 910> 1065 21G<1119.5 1325> 1325 166<525.486 946.442>
VStem: 80 190<449.625 648 810 1044.48> 1141 184<360.562 459>
LayerCount: 2
Fore
SplineSet
725 1491 m 4,0,1
 960 1491 960 1491 1116 1380.5 c 132,-1,2
 1272 1270 1272 1270 1325 1065 c 5,3,-1
 1141 1065 l 5,4,5
 1098 1189 1098 1189 989 1257 c 132,-1,6
 880 1325 880 1325 726 1325 c 4,7,8
 525 1325 525 1325 400.5 1185.5 c 132,-1,9
 276 1046 276 1046 267 810 c 5,10,-1
 910 810 l 5,11,-1
 910 648 l 5,12,-1
 270 648 l 5,13,14
 286 427 286 427 409.5 296.5 c 132,-1,15
 533 166 533 166 725 166 c 4,16,17
 874 166 874 166 988 246 c 132,-1,18
 1102 326 1102 326 1141 459 c 5,19,-1
 1325 459 l 5,20,21
 1285 252 1285 252 1120.5 126 c 132,-1,22
 956 0 956 0 725 0 c 4,23,24
 429 0 429 0 254.5 202.5 c 132,-1,25
 80 405 80 405 80 746.5 c 132,-1,26
 80 1088 80 1088 253.5 1289.5 c 132,-1,27
 427 1491 427 1491 725 1491 c 4,0,1
EndSplineSet
EndChar

StartChar: T
Encoding: 84 84 30
Width: 1410
Flags: W
HStem: 0 21G<45 262.53 1007.68 1270> 0 21G<45 262.53 1007.68 1270> 1423 20G<51 281.276 1029.55 1270> 1423 20G<51 281.276 1029.55 1270>
VStem: 1120 150<172 1257>
LayerCount: 2
Fore
SplineSet
1021 0 m 1,0,-1
 638 575 l 1,1,-1
 249 0 l 1,2,-1
 45 0 l 1,3,-1
 536 723 l 1,4,-1
 536 730 l 1,5,-1
 51 1443 l 1,6,-1
 268 1443 l 1,7,-1
 653 863 l 1,8,-1
 1043 1443 l 1,9,-1
 1270 1443 l 1,10,-1
 1270 0 l 1,11,-1
 1021 0 l 1,0,-1
1120 1257 m 1,12,-1
 750 721 l 1,13,-1
 750 715 l 1,14,-1
 1120 172 l 1,15,-1
 1120 1257 l 1,12,-1
EndSplineSet
EndChar

StartChar: U
Encoding: 85 85 31
Width: 937
Flags: W
HStem: 0 21G<140 308> 0 21G<140 308> 1423 20G<140 349.955> 1423 20G<140 349.955>
VStem: 140 168<0 1112>
LayerCount: 2
Fore
SplineSet
912 10 m 1,0,-1
 768 10 l 1,1,-1
 308 1112 l 1,2,-1
 308 0 l 1,3,-1
 140 0 l 1,4,-1
 140 1443 l 1,5,-1
 342 1443 l 1,6,-1
 912 10 l 1,0,-1
EndSplineSet
EndChar

StartChar: V
Encoding: 86 86 32
Width: 1284
Flags: W
HStem: 0 180<302 562 722 982> 1195 248<555.644 728.356>
VStem: 140 162<180 1443> 518 248<1232.64 1405.36> 562 160<180 937> 982 162<180 1443>
LayerCount: 2
Fore
SplineSet
642 1195 m 132,-1,1
 591 1195 591 1195 554.5 1231.5 c 132,-1,2
 518 1268 518 1268 518 1319 c 132,-1,3
 518 1370 518 1370 554.5 1406.5 c 132,-1,4
 591 1443 591 1443 642 1443 c 132,-1,5
 693 1443 693 1443 729.5 1406.5 c 132,-1,6
 766 1370 766 1370 766 1319 c 132,-1,7
 766 1268 766 1268 729.5 1231.5 c 132,-1,0
 693 1195 693 1195 642 1195 c 132,-1,1
982 1443 m 1,8,-1
 1144 1443 l 1,9,-1
 1144 0 l 1,10,-1
 140 0 l 1,11,-1
 140 1443 l 1,12,-1
 302 1443 l 1,13,-1
 302 180 l 1,14,-1
 562 180 l 1,15,-1
 562 937 l 1,16,-1
 722 937 l 1,17,-1
 722 180 l 1,18,-1
 982 180 l 1,19,-1
 982 1443 l 1,8,-1
EndSplineSet
EndChar

StartChar: W
Encoding: 87 87 33
Width: 937
Flags: W
HStem: 0 21G<140 308> 0 21G<140 308> 1195 248<701.644 874.356>
VStem: 140 168<0 1112> 664 248<1232.64 1405.36>
LayerCount: 2
Fore
SplineSet
788 1195 m 128,-1,1
 737 1195 737 1195 700.5 1231.5 c 128,-1,2
 664 1268 664 1268 664 1319 c 128,-1,3
 664 1370 664 1370 700.5 1406.5 c 128,-1,4
 737 1443 737 1443 788 1443 c 128,-1,5
 839 1443 839 1443 875.5 1406.5 c 128,-1,6
 912 1370 912 1370 912 1319 c 128,-1,7
 912 1268 912 1268 875.5 1231.5 c 128,-1,0
 839 1195 839 1195 788 1195 c 128,-1,1
912 10 m 1,8,-1
 768 10 l 1,9,-1
 308 1112 l 1,10,-1
 308 0 l 1,11,-1
 140 0 l 1,12,-1
 140 1443 l 1,13,-1
 342 1443 l 1,14,-1
 912 10 l 1,8,-1
EndSplineSet
LCarets2: 1 0
EndChar

StartChar: X
Encoding: 88 88 34
Width: 1284
Flags: W
HStem: 0 180<302 562 722 982> 1423 20G<140 302 562 722 982 1144> 1423 20G<140 302 562 722 982 1144>
VStem: 140 162<180 1443> 562 160<180 1443> 982 162<180 1443>
CounterMasks: 1 1c
LayerCount: 2
Fore
SplineSet
982 1443 m 1,0,-1
 1144 1443 l 1,1,-1
 1144 0 l 1,2,-1
 140 0 l 1,3,-1
 140 1443 l 1,4,-1
 302 1443 l 1,5,-1
 302 180 l 1,6,-1
 562 180 l 1,7,-1
 562 1443 l 1,8,-1
 722 1443 l 1,9,-1
 722 180 l 1,10,-1
 982 180 l 1,11,-1
 982 1443 l 1,0,-1
EndSplineSet
Ligature2: "'liga' Standard Ligatures in Latin lookup 0-1" K s
Ligature2: "'liga' Standard Ligatures in Latin lookup 0-1" K S
LCarets2: 1 0
EndChar

StartChar: Y
Encoding: 89 89 35
Width: 1410
Flags: W
HStem: 0 21G<140 380.448 1128.72 1359> 0 21G<140 380.448 1128.72 1359> 1423 20G<140 402.322 1147.47 1365> 1423 20G<140 402.322 1147.47 1365>
VStem: 140 150<186 1271>
LayerCount: 2
Fore
SplineSet
389 1443 m 1,0,-1
 772 868 l 1,1,-1
 1161 1443 l 1,2,-1
 1365 1443 l 1,3,-1
 874 720 l 1,4,-1
 874 713 l 1,5,-1
 1359 0 l 1,6,-1
 1142 0 l 1,7,-1
 757 580 l 1,8,-1
 367 0 l 1,9,-1
 140 0 l 1,10,-1
 140 1443 l 1,11,-1
 389 1443 l 1,0,-1
290 186 m 1,12,-1
 660 722 l 1,13,-1
 660 728 l 1,14,-1
 290 1271 l 1,15,-1
 290 186 l 1,12,-1
EndSplineSet
EndChar

StartChar: Z
Encoding: 90 90 36
Width: 1412
Flags: W
HStem: 0 21G<140 320 1077.85 1272> 0 21G<140 320 1077.85 1272> 1423 20G<140 320 749.899 990 1092 1272> 1423 20G<140 320 749.899 990 1092 1272>
VStem: 140 180<0 724 948 1443> 1092 180<302 1443>
LayerCount: 2
Fore
SplineSet
1092 302 m 1,0,-1
 1092 1443 l 1,1,-1
 1272 1443 l 1,2,-1
 1272 0 l 1,3,-1
 1092 0 l 1,4,-1
 466 885 l 1,5,-1
 320 724 l 1,6,-1
 320 0 l 1,7,-1
 140 0 l 1,8,-1
 140 1443 l 1,9,-1
 320 1443 l 1,10,-1
 320 948 l 1,11,-1
 768 1443 l 1,12,-1
 990 1443 l 1,13,-1
 591 1013 l 1,14,-1
 1092 302 l 1,0,-1
EndSplineSet
EndChar

StartChar: a
Encoding: 97 97 37
Width: 956
Flags: W
HStem: 0 143<90 665> 897 143<290 865>
LayerCount: 2
Fore
SplineSet
866 0 m 1,0,-1
 90 0 l 1,1,-1
 90 143 l 1,2,-1
 665 143 l 1,3,-1
 93 916 l 1,4,-1
 93 1040 l 1,5,-1
 865 1040 l 1,6,-1
 865 897 l 1,7,-1
 290 897 l 1,8,-1
 866 121 l 1,9,-1
 866 0 l 1,0,-1
EndSplineSet
EndChar

StartChar: b
Encoding: 98 98 38
Width: 744
Flags: W
HStem: 0 142<294 694> 1020 20G<120 294>
VStem: 120 174<142 1040>
LayerCount: 2
Fore
SplineSet
694 142 m 1,0,-1
 694 0 l 1,1,-1
 120 0 l 1,2,-1
 120 1040 l 1,3,-1
 294 1040 l 1,4,-1
 294 142 l 1,5,-1
 694 142 l 1,0,-1
EndSplineSet
EndChar

StartChar: c
Encoding: 99 99 39
Width: 814
Flags: W
HStem: 0 142<294 694> 554 162<544 694> 878 162<544 694>
VStem: 120 174<142 1040> 544 150<0 392 554 716 878 1040>
LayerCount: 2
Fore
SplineSet
694 554 m 1,0,-1
 544 554 l 1,1,-1
 544 716 l 1,2,-1
 694 716 l 1,3,-1
 694 554 l 1,0,-1
694 878 m 1,4,-1
 544 878 l 1,5,-1
 544 1040 l 1,6,-1
 694 1040 l 1,7,-1
 694 878 l 1,4,-1
694 392 m 1,8,-1
 694 0 l 1,9,-1
 544 0 l 1,10,-1
 544 392 l 1,11,-1
 694 392 l 1,8,-1
694 142 m 1,12,-1
 694 0 l 1,13,-1
 120 0 l 1,14,-1
 120 1040 l 1,15,-1
 294 1040 l 1,16,-1
 294 142 l 1,17,-1
 694 142 l 1,12,-1
EndSplineSet
EndChar

StartChar: d
Encoding: 100 100 40
Width: 650
Flags: W
HStem: 0 160<0 250 400 650> 880 160<64 250 400 586>
VStem: 250 150<160 880>
LayerCount: 2
Fore
SplineSet
586 1040 m 1,0,-1
 586 880 l 1,1,-1
 400 880 l 1,2,-1
 400 160 l 1,3,-1
 650 160 l 1,4,-1
 650 0 l 1,5,-1
 0 0 l 1,6,-1
 0 160 l 1,7,-1
 250 160 l 1,8,-1
 250 880 l 1,9,-1
 64 880 l 1,10,-1
 64 1040 l 1,11,-1
 586 1040 l 1,0,-1
EndSplineSet
EndChar

StartChar: e
Encoding: 101 101 41
Width: 420
Flags: W
HStem: 0 21G<135 285> 0 21G<135 285> 1020 20G<135 285>
VStem: 135 150<0 426 651 1040>
LayerCount: 2
Fore
SplineSet
406 709 m 1,0,-1
 406 569 l 1,1,-1
 285 510 l 1,2,-1
 285 0 l 1,3,-1
 135 0 l 1,4,-1
 135 426 l 1,5,-1
 14 367 l 1,6,-1
 14 508 l 1,7,-1
 135 566 l 1,8,-1
 135 1040 l 1,9,-1
 285 1040 l 1,10,-1
 285 651 l 1,11,-1
 406 709 l 1,0,-1
EndSplineSet
EndChar

StartChar: f
Encoding: 102 102 42
Width: 1187
Flags: W
HStem: 0 21G<30 207.596 377 546.556 979.083 1157> 0 21G<30 207.596 377 546.556 979.083 1157> 1020 20G<314.423 493 686.923 871.596>
LayerCount: 2
Fore
SplineSet
693 1040 m 1,0,-1
 866 1040 l 1,1,-1
 1157 0 l 1,2,-1
 984 0 l 1,3,-1
 776 846 l 1,4,-1
 541 0 l 1,5,-1
 377 0 l 1,6,-1
 693 1040 l 1,0,-1
202 0 m 1,7,-1
 30 0 l 1,8,-1
 320 1040 l 1,9,-1
 493 1040 l 1,10,-1
 202 0 l 1,7,-1
EndSplineSet
Ligature2: "'liga' Standard Ligatures in Latin lookup 0-1" p h
LCarets2: 1 0
EndChar

StartChar: g
Encoding: 103 103 43
Width: 1486
Flags: W
HStem: 0 158<265 656 843 1234> 1020 20G<630.188 830 1208.19 1408>
VStem: 1234 174<158 330>
LayerCount: 2
Fore
SplineSet
78 0 m 1,0,-1
 78 158 l 1,1,-1
 643 1040 l 1,2,-1
 830 1040 l 1,3,-1
 265 158 l 1,4,-1
 656 158 l 1,5,-1
 1221 1040 l 1,6,-1
 1408 1040 l 1,7,-1
 843 158 l 1,8,-1
 1234 158 l 1,9,-1
 1234 330 l 1,10,-1
 1408 504 l 1,11,-1
 1408 0 l 1,12,-1
 78 0 l 1,0,-1
EndSplineSet
EndChar

StartChar: h
Encoding: 104 104 44
Width: 985
Flags: W
HStem: 0 21G<23 212.713 774.263 962> 0 21G<23 212.713 774.263 962> 1020 20G<398.635 587.346>
LayerCount: 2
Fore
SplineSet
962 0 m 1,0,-1
 781 0 l 1,1,-1
 493 855 l 1,2,-1
 206 0 l 1,3,-1
 23 0 l 1,4,-1
 406 1040 l 1,5,-1
 580 1040 l 1,6,-1
 962 0 l 1,0,-1
EndSplineSet
EndChar

StartChar: i
Encoding: 105 105 45
Width: 550
Flags: W
HStem: 0 21G<200 350> 0 21G<200 350> 878 162<50 200 350 500>
VStem: 50 150<878 1040> 200 150<0 577> 350 150<878 1040>
LayerCount: 2
Fore
SplineSet
500 878 m 1,0,-1
 350 878 l 1,1,-1
 350 1040 l 1,2,-1
 500 1040 l 1,3,-1
 500 878 l 1,0,-1
200 878 m 1,4,-1
 50 878 l 1,5,-1
 50 1040 l 1,6,-1
 200 1040 l 1,7,-1
 200 878 l 1,4,-1
350 577 m 1,8,-1
 350 0 l 1,9,-1
 200 0 l 1,10,-1
 200 577 l 1,11,-1
 350 577 l 1,8,-1
EndSplineSet
EndChar

StartChar: j
Encoding: 106 106 46
Width: 891
Flags: W
HStem: 0 153<319.625 572.23> 923 153<319.625 572.23>
VStem: 60 142<297.113 778.887> 689 142<292.378 784.043>
LayerCount: 2
Fore
SplineSet
725.5 146 m 132,-1,1
 620 0 620 0 446 0 c 132,-1,2
 272 0 272 0 166 145.5 c 132,-1,3
 60 291 60 291 60 538 c 132,-1,4
 60 785 60 785 166 930.5 c 132,-1,5
 272 1076 272 1076 446 1076 c 132,-1,6
 620 1076 620 1076 725.5 930.5 c 132,-1,7
 831 785 831 785 831 538.5 c 132,-1,0
 831 292 831 292 725.5 146 c 132,-1,1
446 153 m 132,-1,9
 558 153 558 153 623.5 254.5 c 132,-1,10
 689 356 689 356 689 538 c 132,-1,11
 689 720 689 720 623.5 821.5 c 132,-1,12
 558 923 558 923 446 923 c 132,-1,13
 334 923 334 923 268 821 c 132,-1,14
 202 719 202 719 202 538 c 132,-1,15
 202 357 202 357 268 255 c 132,-1,8
 334 153 334 153 446 153 c 132,-1,9
EndSplineSet
EndChar

StartChar: k
Encoding: 107 107 47
Width: 1187
Flags: W
HStem: 0 21G<315.404 500.077 694 872.577> 0 21G<315.404 500.077 694 872.577> 1020 20G<30 207.917 640.444 810 979.404 1157>
LayerCount: 2
Fore
SplineSet
494 0 m 1,0,-1
 321 0 l 1,1,-1
 30 1040 l 1,2,-1
 203 1040 l 1,3,-1
 411 194 l 1,4,-1
 646 1040 l 1,5,-1
 810 1040 l 1,6,-1
 494 0 l 1,0,-1
985 1040 m 1,7,-1
 1157 1040 l 1,8,-1
 867 0 l 1,9,-1
 694 0 l 1,10,-1
 985 1040 l 1,7,-1
EndSplineSet
EndChar

StartChar: l
Encoding: 108 108 48
Width: 1017
Flags: W
HStem: 0 153<314.15 630.519> 923 153<318.788 635.088>
VStem: 780 177<318.371 757.854>
LayerCount: 2
Fore
SplineSet
42 717 m 1,0,-1
 212 717 l 1,1,2
 232 807 232 807 300.5 865 c 128,-1,3
 369 923 369 923 491.5 923 c 128,-1,4
 614 923 614 923 697 818.5 c 128,-1,5
 780 714 780 714 780 536.5 c 128,-1,6
 780 359 780 359 696.5 256 c 128,-1,7
 613 153 613 153 476 153 c 0,8,9
 371 153 371 153 302.5 205.5 c 128,-1,10
 234 258 234 258 211 353 c 1,11,-1
 40 353 l 1,12,13
 60 197 60 197 180.5 98.5 c 128,-1,14
 301 0 301 0 477 0 c 0,15,16
 695 0 695 0 826 144.5 c 128,-1,17
 957 289 957 289 957 536 c 128,-1,18
 957 783 957 783 826 929.5 c 128,-1,19
 695 1076 695 1076 494 1076 c 128,-1,20
 293 1076 293 1076 176.5 971 c 128,-1,21
 60 866 60 866 42 717 c 1,0,-1
EndSplineSet
EndChar

StartChar: m
Encoding: 109 109 49
Width: 501
Flags: W
HStem: 0 143<252.86 441> 411 143<224 436> 1020 20G<50 224>
VStem: 50 174<172.285 411 554 1040>
LayerCount: 2
Fore
SplineSet
50 1040 m 1,0,-1
 224 1040 l 1,1,-1
 224 554 l 1,2,-1
 436 554 l 1,3,-1
 436 411 l 1,4,-1
 223 411 l 1,5,-1
 223 296 l 2,6,7
 223 143 223 143 362 143 c 0,8,9
 399 143 399 143 441 149 c 1,10,-1
 441 8 l 1,11,12
 391 0 391 0 335 0 c 0,13,14
 191 0 191 0 120.5 72.5 c 128,-1,15
 50 145 50 145 50 295 c 2,16,-1
 50 1040 l 1,0,-1
EndSplineSet
EndChar

StartChar: n
Encoding: 110 110 50
Width: 872
Flags: W
HStem: 0 162<50 822> 357 162<50 361 511 822> 1020 20G<361 511>
VStem: 361 150<519 1040>
LayerCount: 2
Fore
SplineSet
822 162 m 1,0,-1
 822 0 l 1,1,-1
 50 0 l 1,2,-1
 50 162 l 1,3,-1
 822 162 l 1,0,-1
361 1040 m 1,4,-1
 511 1040 l 1,5,-1
 511 519 l 1,6,-1
 822 519 l 1,7,-1
 822 357 l 1,8,-1
 50 357 l 1,9,-1
 50 519 l 1,10,-1
 361 519 l 1,11,-1
 361 1040 l 1,4,-1
EndSplineSet
EndChar

StartChar: o
Encoding: 111 111 51
Width: 1050
Flags: W
HStem: 0 150<300 748> 890 150<300 750>
VStem: 140 160<-120 0 150 890> 750 160<-120 0 150 890>
LayerCount: 2
Fore
SplineSet
910 1040 m 1,0,-1
 910 -120 l 1,1,-1
 748 -120 l 1,2,-1
 748 0 l 1,3,-1
 300 0 l 1,4,-1
 300 -120 l 1,5,-1
 140 -120 l 1,6,-1
 140 1040 l 1,7,8
 140 1040 140 1040 910 1040 c 1,0,-1
300 890 m 1,9,-1
 300 150 l 1,10,-1
 750 150 l 1,11,-1
 750 890 l 1,12,-1
 300 890 l 1,9,-1
EndSplineSet
EndChar

StartChar: p
Encoding: 112 112 52
Width: 1237
Flags: W
HStem: 0 21G<80 105.498 1131.45 1157> 0 21G<80 105.498 1131.45 1157> 608 132<282 551 686 955> 852 172<80 551 686 1157>
VStem: 551 135<574 608 740 852>
LayerCount: 2
Fore
SplineSet
618 422 m 1,0,-1
 80 0 l 1,1,-1
 80 220 l 1,2,-1
 551 574 l 1,3,-1
 551 608 l 1,4,-1
 282 608 l 1,5,-1
 282 740 l 1,6,-1
 551 740 l 1,7,-1
 551 852 l 1,8,-1
 80 852 l 1,9,-1
 80 1024 l 1,10,-1
 1157 1024 l 1,11,-1
 1157 852 l 1,12,-1
 686 852 l 1,13,-1
 686 740 l 1,14,-1
 955 740 l 1,15,-1
 955 608 l 1,16,-1
 686 608 l 1,17,-1
 686 574 l 1,18,-1
 1157 220 l 1,19,-1
 1157 0 l 1,20,-1
 618 422 l 1,0,-1
EndSplineSet
EndChar

StartChar: q
Encoding: 113 113 53
Width: 1550
Flags: W
HStem: 0 153<260 722 828 1290>
LayerCount: 2
Fore
SplineSet
491 811 m 1,0,-1
 260 153 l 1,1,-1
 722 153 l 1,2,-1
 491 811 l 1,0,-1
1059 811 m 1,3,-1
 828 153 l 1,4,-1
 1290 153 l 1,5,-1
 1059 811 l 1,3,-1
25 0 m 1,6,-1
 405 1030 l 1,7,-1
 577 1030 l 1,8,-1
 775 493 l 1,9,-1
 973 1030 l 1,10,-1
 1145 1030 l 1,11,-1
 1525 0 l 1,12,-1
 25 0 l 1,6,-1
EndSplineSet
LCarets2: 1 557
EndChar

StartChar: r
Encoding: 114 114 54
Width: 996
Flags: W
HStem: 0 21G<25 239.152 756.848 971> 0 21G<25 239.152 756.848 971> 1020 20G<411 585>
VStem: 411 174<620 1040>
LayerCount: 2
Fore
SplineSet
769 0 m 1,0,-1
 498 446 l 1,1,-1
 227 0 l 1,2,-1
 25 0 l 1,3,-1
 411 620 l 1,4,-1
 411 1040 l 5,5,-1
 585 1040 l 5,6,-1
 585 620 l 1,7,-1
 971 0 l 1,8,-1
 769 0 l 1,0,-1
EndSplineSet
EndChar

StartChar: s
Encoding: 115 115 55
Width: 1033
Flags: W
HStem: 0 153<371.431 687.023> 447 142<234 700> 923 153<371.188 691.531>
VStem: 50 184<301.191 447 589 778.211> 791 172<741 828.979>
LayerCount: 2
Fore
SplineSet
791 741 m 5,0,1
 738 923 738 923 516 923 c 4,2,3
 402 923 402 923 319.5 834.5 c 132,-1,4
 237 746 237 746 229 589 c 5,5,-1
 700 589 l 5,6,-1
 700 447 l 5,7,-1
 234 447 l 5,8,9
 250 309 250 309 330 231 c 132,-1,10
 410 153 410 153 521 153 c 132,-1,11
 632 153 632 153 699.5 205 c 132,-1,12
 767 257 767 257 789 338 c 5,13,-1
 961 338 l 5,14,15
 938 196 938 196 822 98 c 132,-1,16
 706 0 706 0 526 0 c 4,17,18
 311 0 311 0 180.5 147.5 c 132,-1,19
 50 295 50 295 50 540 c 132,-1,20
 50 785 50 785 180 930.5 c 132,-1,21
 310 1076 310 1076 528 1076 c 4,22,23
 701 1076 701 1076 818.5 983.5 c 132,-1,24
 936 891 936 891 963 741 c 5,25,-1
 791 741 l 5,0,1
EndSplineSet
EndChar

StartChar: t
Encoding: 116 116 56
Width: 1060
Flags: W
HStem: 0 21G<33 238.677 713.424 940> 0 21G<33 238.677 713.424 940> 1020 20G<39 245.821 717.333 940>
VStem: 800 140<181 859>
LayerCount: 2
Fore
SplineSet
940 1040 m 1,0,-1
 940 0 l 1,1,-1
 726 0 l 1,2,-1
 477 396 l 1,3,-1
 226 0 l 1,4,-1
 33 0 l 1,5,-1
 387 520 l 1,6,-1
 39 1040 l 1,7,-1
 233 1040 l 1,8,-1
 483 650 l 1,9,-1
 730 1040 l 1,10,-1
 940 1040 l 1,0,-1
800 859 m 1,11,-1
 573 527 l 1,12,-1
 800 181 l 1,13,-1
 800 859 l 1,11,-1
EndSplineSet
EndChar

StartChar: u
Encoding: 117 117 57
Width: 730
Flags: W
HStem: 0 21G<110 258 545.65 706> 0 21G<110 258 545.65 706> 1020 20G<110 299.962>
VStem: 110 148<0 709>
LayerCount: 2
Fore
SplineSet
554 0 m 1,0,-1
 258 709 l 1,1,-1
 258 0 l 1,2,-1
 110 0 l 1,3,-1
 110 1040 l 1,4,-1
 292 1040 l 1,5,-1
 706 0 l 1,6,-1
 554 0 l 1,0,-1
EndSplineSet
EndChar

StartChar: v
Encoding: 118 118 58
Width: 1284
Flags: W
HStem: 0 180<302 562 722 982> 792 248<555.644 728.356>
VStem: 140 162<180 1040> 518 248<829.644 1002.36> 562 160<180 534> 982 162<180 1040>
LayerCount: 2
Fore
SplineSet
642 792 m 132,-1,1
 591 792 591 792 554.5 828.5 c 132,-1,2
 518 865 518 865 518 916 c 132,-1,3
 518 967 518 967 554.5 1003.5 c 132,-1,4
 591 1040 591 1040 642 1040 c 132,-1,5
 693 1040 693 1040 729.5 1003.5 c 132,-1,6
 766 967 766 967 766 916 c 132,-1,7
 766 865 766 865 729.5 828.5 c 132,-1,0
 693 792 693 792 642 792 c 132,-1,1
982 1040 m 5,8,-1
 1144 1040 l 5,9,-1
 1144 0 l 1,10,-1
 140 0 l 1,11,-1
 140 1040 l 5,12,-1
 302 1040 l 5,13,-1
 302 180 l 1,14,-1
 562 180 l 1,15,-1
 562 534 l 5,16,-1
 722 534 l 5,17,-1
 722 180 l 1,18,-1
 982 180 l 1,19,-1
 982 1040 l 5,8,-1
EndSplineSet
EndChar

StartChar: w
Encoding: 119 119 59
Width: 730
Flags: W
HStem: 0 21G<110 258 545.65 706> 0 21G<110 258 545.65 706> 792 248<519.644 692.356>
VStem: 110 148<0 709> 482 248<829.644 1002.36>
LayerCount: 2
Fore
SplineSet
606 792 m 128,-1,1
 555 792 555 792 518.5 828.5 c 128,-1,2
 482 865 482 865 482 916 c 128,-1,3
 482 967 482 967 518.5 1003.5 c 128,-1,4
 555 1040 555 1040 606 1040 c 128,-1,5
 657 1040 657 1040 693.5 1003.5 c 128,-1,6
 730 967 730 967 730 916 c 128,-1,7
 730 865 730 865 693.5 828.5 c 128,-1,0
 657 792 657 792 606 792 c 128,-1,1
554 0 m 1,8,-1
 258 709 l 1,9,-1
 258 0 l 1,10,-1
 110 0 l 1,11,-1
 110 1040 l 1,12,-1
 292 1040 l 1,13,-1
 706 0 l 1,14,-1
 554 0 l 1,8,-1
EndSplineSet
LCarets2: 1 0
EndChar

StartChar: x
Encoding: 120 120 60
Width: 1284
Flags: W
HStem: 0 180<302 562 722 982> 1020 20G<140 302 562 722 982 1144>
VStem: 140 162<180 1040> 562 160<180 1040> 982 162<180 1040>
CounterMasks: 1 38
LayerCount: 2
Fore
SplineSet
982 1040 m 1,0,-1
 1144 1040 l 1,1,-1
 1144 0 l 1,2,-1
 140 0 l 1,3,-1
 140 1040 l 1,4,-1
 302 1040 l 1,5,-1
 302 180 l 1,6,-1
 562 180 l 1,7,-1
 562 1040 l 1,8,-1
 722 1040 l 1,9,-1
 722 180 l 1,10,-1
 982 180 l 1,11,-1
 982 1040 l 1,0,-1
EndSplineSet
Ligature2: "'liga' Standard Ligatures in Latin lookup 0-1" k s
LCarets2: 1 0
EndChar

StartChar: y
Encoding: 121 121 61
Width: 1060
Flags: W
HStem: 0 21G<120 342.667 814.179 1021> 0 21G<120 342.667 814.179 1021> 1020 20G<120 346.576 821.323 1027>
VStem: 120 140<181 859>
LayerCount: 2
Fore
SplineSet
120 0 m 1,0,-1
 120 1040 l 1,1,-1
 334 1040 l 1,2,-1
 583 644 l 1,3,-1
 834 1040 l 1,4,-1
 1027 1040 l 1,5,-1
 673 520 l 1,6,-1
 1021 0 l 1,7,-1
 827 0 l 1,8,-1
 577 390 l 1,9,-1
 330 0 l 1,10,-1
 120 0 l 1,0,-1
260 181 m 1,11,-1
 487 513 l 1,12,-1
 260 859 l 1,13,-1
 260 181 l 1,11,-1
EndSplineSet
EndChar

StartChar: z
Encoding: 122 122 62
Width: 994
Flags: W
HStem: 0 21G<122 296 763.05 981> 0 21G<122 296 763.05 981> 1040 383G<122 296 736.087 981> 1423 20G<122 296>
VStem: 122 174<0 392 578 1443> 841 140<178 915>
LayerCount: 2
Fore
SplineSet
779 0 m 1,0,-1
 393 484 l 1,1,-1
 296 392 l 1,2,-1
 296 0 l 1,3,-1
 122 0 l 1,4,-1
 122 1443 l 1,5,-1
 296 1443 l 1,6,-1
 296 578 l 1,7,-1
 756 1040 l 1,8,-1
 981 1040 l 1,9,-1
 981 0 l 1,10,-1
 779 0 l 1,0,-1
841 915 m 1,11,-1
 516 591 l 1,12,-1
 841 178 l 1,13,-1
 841 915 l 1,11,-1
EndSplineSet
EndChar

StartChar: Agrave
Encoding: 192 192 63
Width: 1267
Flags: W
HStem: 0 162<331 936> 1281 162<344 923>
LayerCount: 2
Fore
SplineSet
1167 0 m 1,0,-1
 100 0 l 1,1,-1
 100 121 l 1,2,-1
 534 732 l 1,3,-1
 117 1322 l 1,4,-1
 117 1443 l 1,5,-1
 1150 1443 l 1,6,-1
 1150 1322 l 1,7,-1
 733 732 l 1,8,-1
 1167 121 l 1,9,-1
 1167 0 l 1,0,-1
936 162 m 1,10,-1
 634 590 l 1,11,-1
 331 162 l 1,12,-1
 936 162 l 1,10,-1
344 1281 m 1,13,-1
 634 873 l 1,14,-1
 923 1281 l 1,15,-1
 344 1281 l 1,13,-1
EndSplineSet
EndChar

StartChar: Aacute
Encoding: 193 193 64
Width: 1267
Flags: W
HStem: 0 162<100 936> 1281 162<344 1139>
LayerCount: 2
Fore
SplineSet
1167 0 m 1,0,-1
 100 0 l 1,1,-1
 100 162 l 1,2,-1
 936 162 l 1,3,-1
 117 1322 l 1,4,-1
 117 1443 l 1,5,-1
 1139 1443 l 1,6,-1
 1139 1281 l 1,7,-1
 344 1281 l 1,8,-1
 1167 121 l 1,9,-1
 1167 0 l 1,0,-1
EndSplineSet
EndChar

StartChar: Aring
Encoding: 197 197 65
Width: 1190
Flags: W
HStem: 0 21G<505 685> 0 21G<505 685> 1119 162<50 505 685 1140> 1476 162<50 505 685 1140> 1604 248<508.644 681.356>
VStem: 471 248<1641.64 1814.36> 505 180<0 1119>
LayerCount: 2
Fore
SplineSet
595 1604 m 128,-1,1
 544 1604 544 1604 507.5 1640.5 c 128,-1,2
 471 1677 471 1677 471 1728 c 128,-1,3
 471 1779 471 1779 507.5 1815.5 c 128,-1,4
 544 1852 544 1852 595 1852 c 128,-1,5
 646 1852 646 1852 682.5 1815.5 c 128,-1,6
 719 1779 719 1779 719 1728 c 128,-1,7
 719 1677 719 1677 682.5 1640.5 c 128,-1,0
 646 1604 646 1604 595 1604 c 128,-1,1
685 1638 m 1,8,-1
 1140 1638 l 1,9,-1
 1140 1476 l 1,10,-1
 685 1476 l 1,11,-1
 685 1638 l 1,8,-1
505 1476 m 1,12,-1
 50 1476 l 1,13,-1
 50 1638 l 1,14,-1
 505 1638 l 1,15,-1
 505 1476 l 1,12,-1
685 0 m 1,16,-1
 505 0 l 1,17,-1
 505 1119 l 1,18,-1
 50 1119 l 1,19,-1
 50 1281 l 1,20,-1
 1140 1281 l 1,21,-1
 1140 1119 l 1,22,-1
 685 1119 l 1,23,-1
 685 0 l 1,16,-1
EndSplineSet
LCarets2: 1 0
EndChar

StartChar: AE
Encoding: 198 198 66
Width: 1723
Flags: W
HStem: 0 180<302 1421> 1260 184<592.305 1131.43>
VStem: 140 162<180 983.531> 1421 162<180 984.609>
LayerCount: 2
Fore
SplineSet
140 0 m 1,0,-1
 140 762 l 1,1,2
 141 1084 141 1084 331 1264 c 0,3,4
 522 1444 522 1444 862 1444 c 128,-1,5
 1202 1444 1202 1444 1392 1265 c 128,-1,6
 1582 1086 1582 1086 1583 762 c 1,7,-1
 1583 0 l 1,8,-1
 140 0 l 1,0,-1
302 180 m 1,9,-1
 1421 180 l 1,10,-1
 1421 750 l 1,11,12
 1420 996 1420 996 1276 1128 c 128,-1,13
 1132 1260 1132 1260 862 1260 c 128,-1,14
 592 1260 592 1260 447 1129 c 128,-1,15
 302 998 302 998 302 750 c 2,16,-1
 302 180 l 1,9,-1
EndSplineSet
LCarets2: 1 802
EndChar

StartChar: Iacute
Encoding: 205 205 68
Width: 1190
Flags: W
HStem: 0 21G<505 685> 0 21G<505 685> 1119 162<50 505 685 1140> 1476 162<50 1140>
VStem: 505 180<0 1119>
LayerCount: 2
Fore
SplineSet
50 1476 m 1,0,-1
 50 1638 l 1,1,-1
 1140 1638 l 1,2,-1
 1140 1476 l 1,3,-1
 50 1476 l 1,0,-1
685 0 m 1,4,-1
 505 0 l 1,5,-1
 505 1119 l 1,6,-1
 50 1119 l 1,7,-1
 50 1281 l 1,8,-1
 1140 1281 l 1,9,-1
 1140 1119 l 1,10,-1
 685 1119 l 1,11,-1
 685 0 l 1,4,-1
EndSplineSet
EndChar

StartChar: Eth
Encoding: 208 208 69
Width: 1190
Flags: W
HStem: 0 21G<505 685> 0 21G<505 685> 792 162<230 505 685 960> 1195 248<508.644 681.356>
VStem: 50 180<954 1443> 471 248<1232.64 1405.36> 505 180<0 792> 960 180<954 1443>
LayerCount: 2
Fore
SplineSet
685 0 m 1,0,-1
 505 0 l 1,1,-1
 505 792 l 1,2,-1
 50 792 l 1,3,-1
 50 1443 l 1,4,-1
 230 1443 l 1,5,-1
 230 954 l 1,6,-1
 960 954 l 1,7,-1
 960 1443 l 1,8,-1
 1140 1443 l 1,9,-1
 1140 792 l 1,10,-1
 685 792 l 1,11,-1
 685 0 l 1,0,-1
595 1195 m 128,-1,13
 544 1195 544 1195 507.5 1231.5 c 128,-1,14
 471 1268 471 1268 471 1319 c 128,-1,15
 471 1370 471 1370 507.5 1406.5 c 128,-1,16
 544 1443 544 1443 595 1443 c 128,-1,17
 646 1443 646 1443 682.5 1406.5 c 128,-1,18
 719 1370 719 1370 719 1319 c 128,-1,19
 719 1268 719 1268 682.5 1231.5 c 128,-1,12
 646 1195 646 1195 595 1195 c 128,-1,13
EndSplineSet
EndChar

StartChar: Ograve
Encoding: 210 210 70
Width: 1190
Flags: W
HStem: 0 162<50 505 685 1140> 1119 162<50 505 685 1140> 1476 162<50 505 685 1140>
VStem: 505 180<162 1119>
LayerCount: 2
Fore
SplineSet
50 0 m 1,0,-1
 50 162 l 1,1,-1
 505 162 l 1,2,-1
 505 1119 l 1,3,-1
 50 1119 l 1,4,-1
 50 1281 l 1,5,-1
 1140 1281 l 1,6,-1
 1140 1119 l 1,7,-1
 685 1119 l 1,8,-1
 685 162 l 1,9,-1
 1140 162 l 1,10,-1
 1140 0 l 1,11,-1
 50 0 l 1,0,-1
685 1638 m 1,12,-1
 1140 1638 l 1,13,-1
 1140 1476 l 1,14,-1
 685 1476 l 1,15,-1
 685 1638 l 1,12,-1
505 1476 m 1,16,-1
 50 1476 l 1,17,-1
 50 1638 l 1,18,-1
 505 1638 l 1,19,-1
 505 1476 l 1,16,-1
EndSplineSet
EndChar

StartChar: Oacute
Encoding: 211 211 71
Width: 1190
Flags: W
HStem: 0 21G<505 685> 0 21G<505 685> 1119 162<50 505 685 1140> 1476 162<50 505 685 1140>
VStem: 505 180<0 1119>
LayerCount: 2
Fore
SplineSet
685 1638 m 1,0,-1
 1140 1638 l 1,1,-1
 1140 1476 l 1,2,-1
 685 1476 l 1,3,-1
 685 1638 l 1,0,-1
505 1476 m 1,4,-1
 50 1476 l 1,5,-1
 50 1638 l 1,6,-1
 505 1638 l 1,7,-1
 505 1476 l 1,4,-1
685 0 m 1,8,-1
 505 0 l 1,9,-1
 505 1119 l 1,10,-1
 50 1119 l 1,11,-1
 50 1281 l 1,12,-1
 1140 1281 l 1,13,-1
 1140 1119 l 1,14,-1
 685 1119 l 1,15,-1
 685 0 l 1,8,-1
EndSplineSet
EndChar

StartChar: Oslash
Encoding: 216 216 72
Width: 1284
Flags: W
HStem: 0 248<555.644 728.356> 1243 20G<302 562 722 982>
VStem: 518 248<37.6442 210.356>
LayerCount: 2
Fore
SplineSet
642 248 m 128,-1,1
 591 248 591 248 554.5 211.5 c 128,-1,2
 518 175 518 175 518 124 c 128,-1,3
 518 73 518 73 554.5 36.5 c 128,-1,4
 591 0 591 0 642 0 c 128,-1,5
 693 0 693 0 729.5 36.5 c 128,-1,6
 766 73 766 73 766 124 c 128,-1,7
 766 175 766 175 729.5 211.5 c 128,-1,0
 693 248 693 248 642 248 c 128,-1,1
982 0 m 1,8,-1
 1144 0 l 1,9,-1
 1144 1443 l 1,10,-1
 140 1443 l 1,11,-1
 140 0 l 1,12,-1
 302 0 l 1,13,-1
 302 1263 l 1,14,-1
 562 1263 l 1,15,-1
 562 506 l 1,16,-1
 722 506 l 1,17,-1
 722 1263 l 1,18,-1
 982 1263 l 1,19,-1
 982 0 l 1,8,-1
EndSplineSet
EndChar

StartChar: Ugrave
Encoding: 217 217 73
Width: 937
Flags: W
HStem: 0 21G<140 308> 0 21G<140 308> 1423 20G<140 349.955> 1423 20G<140 349.955>
VStem: 140 168<0 1112>
LayerCount: 2
Fore
SplineSet
912 10 m 1,0,-1
 768 10 l 1,1,-1
 308 1112 l 1,2,-1
 308 0 l 1,3,-1
 140 0 l 1,4,-1
 140 1443 l 1,5,-1
 342 1443 l 1,6,-1
 912 10 l 1,0,-1
EndSplineSet
EndChar

StartChar: Uacute
Encoding: 218 218 74
Width: 937
Flags: W
HStem: 0 21G<744 912> 0 21G<744 912> 1423 20G<702.045 912> 1423 20G<702.045 912>
VStem: 744 168<0 1112>
LayerCount: 2
Fore
SplineSet
140 10 m 1,0,-1
 710 1443 l 1,1,-1
 912 1443 l 1,2,-1
 912 0 l 1,3,-1
 744 0 l 1,4,-1
 744 1112 l 1,5,-1
 284 10 l 1,6,-1
 140 10 l 1,0,-1
EndSplineSet
EndChar

StartChar: Yacute
Encoding: 221 221 75
Width: 1279
Flags: W
HStem: 0 185<486.412 794.307> 1263 180<-100 224 384 896 1056 1379>
VStem: 224 160<297.196 1263> 896 160<294.797 1263>
LayerCount: 2
Fore
SplineSet
1379 1443 m 1,0,-1
 1379 1263 l 1,1,-1
 1056 1263 l 1,2,-1
 1056 422 l 2,3,4
 1056 250 1056 250 945 125 c 128,-1,5
 834 0 834 0 640 0 c 128,-1,6
 446 0 446 0 335 126.5 c 128,-1,7
 224 253 224 253 224 424 c 2,8,-1
 224 1263 l 1,9,-1
 -100 1263 l 1,10,-1
 -100 1443 l 1,11,-1
 1379 1443 l 1,0,-1
896 1263 m 1,12,-1
 384 1263 l 1,13,-1
 384 473 l 2,14,15
 384 343 384 343 450 264 c 128,-1,16
 516 185 516 185 641 185 c 128,-1,17
 766 185 766 185 831 264 c 0,18,19
 896 342 896 342 896 473 c 2,20,-1
 896 1263 l 1,12,-1
EndSplineSet
EndChar

StartChar: Thorn
Encoding: 222 222 76
Width: 1232
Flags: W
HStem: 345 160<340 837.804> 1017 160<340 840.203>
VStem: 160 180<21 345 505 1017 1177 1500> 950 185<609.431 914.902>
LayerCount: 2
Fore
SplineSet
160 1479 m 5,0,-1
 340 1479 l 5,1,-1
 340 1156 l 5,2,-1
 713 1156 l 6,3,4
 885 1156 885 1156 1010 1045 c 4,5,6
 1135 933 1135 933 1135 739 c 132,-1,7
 1135 545 1135 545 1008.5 434.5 c 132,-1,8
 882 324 882 324 711 324 c 6,9,-1
 340 324 l 5,10,-1
 340 0 l 5,11,-1
 160 0 l 5,12,-1
 160 1479 l 5,0,-1
340 996 m 5,13,-1
 340 484 l 5,14,-1
 662 484 l 6,15,16
 792 484 792 484 871 550 c 132,-1,17
 950 616 950 616 950 741 c 132,-1,18
 950 866 950 866 871 931 c 132,-1,19
 792 996 792 996 662 996 c 6,20,-1
 340 996 l 5,13,-1
EndSplineSet
LCarets2: 1 0
Ligature2: "'liga' Standard Ligatures in Latin lookup 0-1" T h
Ligature2: "'liga' Standard Ligatures in Latin lookup 0-1" T H
EndChar

StartChar: agrave
Encoding: 224 224 77
Width: 956
Flags: W
HStem: 0 143<291 665> 897 143<290 666>
LayerCount: 2
Fore
SplineSet
866 0 m 1,0,-1
 90 0 l 1,1,-1
 90 121 l 1,2,-1
 386 520 l 1,3,-1
 93 916 l 1,4,-1
 93 1040 l 1,5,-1
 863 1040 l 1,6,-1
 863 916 l 1,7,-1
 570 520 l 1,8,-1
 866 121 l 1,9,-1
 866 0 l 1,0,-1
665 143 m 1,10,-1
 478 396 l 1,11,-1
 291 143 l 1,12,-1
 665 143 l 1,10,-1
290 897 m 1,13,-1
 478 644 l 1,14,-1
 666 897 l 1,15,-1
 290 897 l 1,13,-1
EndSplineSet
EndChar

StartChar: aacute
Encoding: 225 225 78
Width: 956
Flags: W
HStem: 0 143<90 665> 897 143<290 865>
LayerCount: 2
Fore
SplineSet
866 0 m 1,0,-1
 90 0 l 1,1,-1
 90 143 l 1,2,-1
 665 143 l 1,3,-1
 93 916 l 1,4,-1
 93 1040 l 1,5,-1
 865 1040 l 1,6,-1
 865 897 l 1,7,-1
 290 897 l 1,8,-1
 866 121 l 1,9,-1
 866 0 l 1,0,-1
EndSplineSet
EndChar

StartChar: aring
Encoding: 229 229 79
Width: 1190
Flags: W
HStem: 0 21G<505 685> 0 21G<505 685> 521 162<50 505 685 1140> 878 162<50 505 685 1140> 1033 248<508.644 681.356>
VStem: 471 248<1070.64 1243.36> 505 180<0 521>
LayerCount: 2
Fore
SplineSet
595 1033 m 128,-1,1
 544 1033 544 1033 507.5 1069.5 c 128,-1,2
 471 1106 471 1106 471 1157 c 128,-1,3
 471 1208 471 1208 507.5 1244.5 c 128,-1,4
 544 1281 544 1281 595 1281 c 128,-1,5
 646 1281 646 1281 682.5 1244.5 c 128,-1,6
 719 1208 719 1208 719 1157 c 128,-1,7
 719 1106 719 1106 682.5 1069.5 c 128,-1,0
 646 1033 646 1033 595 1033 c 128,-1,1
685 1040 m 1,8,-1
 1140 1040 l 1,9,-1
 1140 878 l 1,10,-1
 685 878 l 1,11,-1
 685 1040 l 1,8,-1
505 878 m 1,12,-1
 50 878 l 1,13,-1
 50 1040 l 1,14,-1
 505 1040 l 1,15,-1
 505 878 l 1,12,-1
685 0 m 1,16,-1
 505 0 l 1,17,-1
 505 521 l 1,18,-1
 50 521 l 1,19,-1
 50 683 l 1,20,-1
 1140 683 l 1,21,-1
 1140 521 l 1,22,-1
 685 521 l 1,23,-1
 685 0 l 1,16,-1
EndSplineSet
LCarets2: 1 0
EndChar

StartChar: ae
Encoding: 230 230 80
Width: 1683
Flags: W
HStem: 0 180<282 1401> 856 184<571.401 1110.61>
VStem: 120 162<180 578.844> 1401 162<180 581>
LayerCount: 2
Fore
SplineSet
120 0 m 1,0,-1
 120 359 l 2,1,2
 120 678 120 678 310 859 c 128,-1,3
 500 1040 500 1040 840 1040 c 128,-1,4
 1180 1040 1180 1040 1371 861 c 128,-1,5
 1562 682 1562 682 1563 359 c 1,6,-1
 1563 0 l 1,7,-1
 120 0 l 1,0,-1
282 180 m 1,8,-1
 1401 180 l 1,9,-1
 1401 347 l 2,10,11
 1401 592 1401 592 1256.5 724 c 128,-1,12
 1112 856 1112 856 842 856 c 128,-1,13
 572 856 572 856 427 725 c 128,-1,14
 282 594 282 594 282 347 c 2,15,-1
 282 180 l 1,8,-1
EndSplineSet
LCarets2: 1 847
EndChar

StartChar: iacute
Encoding: 237 237 82
Width: 1190
Flags: W
HStem: 0 21G<505 685> 0 21G<505 685> 878 162<50 505 685 1140> 1235 162<50 1140>
VStem: 505 180<0 878>
LayerCount: 2
Fore
SplineSet
50 1235 m 5,0,-1
 50 1397 l 5,1,-1
 1140 1397 l 5,2,-1
 1140 1235 l 5,3,-1
 50 1235 l 5,0,-1
685 0 m 1,4,-1
 505 0 l 1,5,-1
 505 878 l 5,6,-1
 50 878 l 5,7,-1
 50 1040 l 5,8,-1
 1140 1040 l 5,9,-1
 1140 878 l 5,10,-1
 685 878 l 5,11,-1
 685 0 l 1,4,-1
EndSplineSet
EndChar

StartChar: eth
Encoding: 240 240 83
Width: 1190
Flags: W
HStem: 0 21G<505 685> 0 21G<505 685> 389 162<230 505 685 960> 792 248<508.644 681.356>
VStem: 50 180<551 1040> 471 248<829.644 1002.36> 505 180<0 389> 960 180<551 1040>
LayerCount: 2
Fore
SplineSet
685 0 m 1,0,-1
 505 0 l 1,1,-1
 505 389 l 1,2,-1
 50 389 l 1,3,-1
 50 1040 l 1,4,-1
 230 1040 l 1,5,-1
 230 551 l 1,6,-1
 960 551 l 1,7,-1
 960 1040 l 1,8,-1
 1140 1040 l 1,9,-1
 1140 389 l 1,10,-1
 685 389 l 1,11,-1
 685 0 l 1,0,-1
595 792 m 128,-1,13
 544 792 544 792 507.5 828.5 c 128,-1,14
 471 865 471 865 471 916 c 128,-1,15
 471 967 471 967 507.5 1003.5 c 128,-1,16
 544 1040 544 1040 595 1040 c 128,-1,17
 646 1040 646 1040 682.5 1003.5 c 128,-1,18
 719 967 719 967 719 916 c 128,-1,19
 719 865 719 865 682.5 828.5 c 128,-1,12
 646 792 646 792 595 792 c 128,-1,13
EndSplineSet
EndChar

StartChar: ograve
Encoding: 242 242 84
Width: 1190
Flags: W
HStem: 0 162<50 505 685 1140> 878 162<50 505 685 1140> 1235 162<50 505 685 1140>
VStem: 505 180<162 878>
LayerCount: 2
Fore
SplineSet
505 1235 m 1,0,-1
 50 1235 l 1,1,-1
 50 1397 l 1,2,-1
 505 1397 l 1,3,-1
 505 1235 l 1,0,-1
685 1397 m 1,4,-1
 1140 1397 l 1,5,-1
 1140 1235 l 1,6,-1
 685 1235 l 1,7,-1
 685 1397 l 1,4,-1
50 0 m 1,8,-1
 50 162 l 1,9,-1
 505 162 l 1,10,-1
 505 878 l 1,11,-1
 50 878 l 1,12,-1
 50 1040 l 1,13,-1
 1140 1040 l 1,14,-1
 1140 878 l 1,15,-1
 685 878 l 1,16,-1
 685 162 l 1,17,-1
 1140 162 l 1,18,-1
 1140 0 l 1,19,-1
 50 0 l 1,8,-1
EndSplineSet
EndChar

StartChar: oacute
Encoding: 243 243 85
Width: 1190
Flags: W
HStem: 0 21G<505 685> 0 21G<505 685> 878 162<50 505 685 1140> 1235 162<50 505 685 1140>
VStem: 505 180<0 878>
LayerCount: 2
Fore
SplineSet
685 1397 m 1,0,-1
 1140 1397 l 1,1,-1
 1140 1235 l 1,2,-1
 685 1235 l 1,3,-1
 685 1397 l 1,0,-1
505 1235 m 1,4,-1
 50 1235 l 1,5,-1
 50 1397 l 1,6,-1
 505 1397 l 1,7,-1
 505 1235 l 1,4,-1
685 0 m 1,8,-1
 505 0 l 1,9,-1
 505 878 l 1,10,-1
 50 878 l 1,11,-1
 50 1040 l 1,12,-1
 1140 1040 l 1,13,-1
 1140 878 l 1,14,-1
 685 878 l 1,15,-1
 685 0 l 1,8,-1
EndSplineSet
EndChar

StartChar: oslash
Encoding: 248 248 86
Width: 1284
Flags: W
HStem: 0 248<555.644 728.356>
VStem: 518 248<37.6442 210.356>
LayerCount: 2
Fore
SplineSet
642 248 m 132,-1,1
 591 248 591 248 554.5 211.5 c 132,-1,2
 518 175 518 175 518 124 c 132,-1,3
 518 73 518 73 554.5 36.5 c 132,-1,4
 591 0 591 0 642 0 c 132,-1,5
 693 0 693 0 729.5 36.5 c 132,-1,6
 766 73 766 73 766 124 c 132,-1,7
 766 175 766 175 729.5 211.5 c 132,-1,0
 693 248 693 248 642 248 c 132,-1,1
982 0 m 5,8,-1
 1144 0 l 5,9,-1
 1144 1040 l 1,10,-1
 140 1040 l 1,11,-1
 140 0 l 5,12,-1
 302 0 l 5,13,-1
 302 860 l 1,14,-1
 562 860 l 1,15,-1
 562 506 l 5,16,-1
 722 506 l 5,17,-1
 722 860 l 1,18,-1
 982 860 l 1,19,-1
 982 0 l 5,8,-1
EndSplineSet
EndChar

StartChar: ugrave
Encoding: 249 249 87
Width: 730
Flags: W
HStem: 0 21G<110 258 545.65 706> 0 21G<110 258 545.65 706> 1020 20G<110 299.962>
VStem: 110 148<0 709>
LayerCount: 2
Fore
SplineSet
554 0 m 1,0,-1
 258 709 l 1,1,-1
 258 0 l 1,2,-1
 110 0 l 1,3,-1
 110 1040 l 1,4,-1
 292 1040 l 1,5,-1
 706 0 l 1,6,-1
 554 0 l 1,0,-1
EndSplineSet
EndChar

StartChar: uacute
Encoding: 250 250 88
Width: 730
Flags: W
HStem: 0 21G<110 270.35 558 706> 0 21G<110 270.35 558 706> 1020 20G<516.038 706>
VStem: 558 148<0 709>
LayerCount: 2
Fore
SplineSet
262 0 m 1,0,-1
 110 0 l 1,1,-1
 524 1040 l 1,2,-1
 706 1040 l 1,3,-1
 706 0 l 1,4,-1
 558 0 l 1,5,-1
 558 709 l 1,6,-1
 262 0 l 1,0,-1
EndSplineSet
EndChar

StartChar: yacute
Encoding: 253 253 89
Width: 1012
Flags: W
HStem: 0 185<352.412 660.307> 860 180<250 762>
VStem: 90 160<297.196 860> 762 160<294.797 860>
LayerCount: 2
Fore
SplineSet
922 1040 m 1,0,-1
 922 860 l 1,1,-1
 922 422 l 2,2,3
 922 250 922 250 811 125 c 128,-1,4
 700 0 700 0 506 0 c 128,-1,5
 312 0 312 0 201 126.5 c 128,-1,6
 90 253 90 253 90 424 c 2,7,-1
 90 860 l 1,8,-1
 90 1040 l 1,9,-1
 922 1040 l 1,0,-1
762 860 m 1,10,-1
 250 860 l 1,11,-1
 250 473 l 2,12,13
 250 343 250 343 316 264 c 128,-1,14
 382 185 382 185 507 185 c 128,-1,15
 632 185 632 185 697 264 c 0,16,17
 762 342 762 342 762 473 c 2,18,-1
 762 860 l 1,10,-1
EndSplineSet
EndChar

StartChar: thorn
Encoding: 254 254 90
Width: 979
Flags: W
HStem: 0 21G<140 320> 0 21G<140 320> 104 160<320 585.804> 776 160<320 588.203> 1020 20G<140 320>
VStem: 140 180<0 104 264 776 936 1040> 698 185<368.431 673.902>
LayerCount: 2
Fore
SplineSet
140 1040 m 1,0,-1
 320 1040 l 1,1,-1
 320 936 l 1,2,-1
 461 936 l 2,3,4
 633 936 633 936 758 825 c 0,5,6
 883 713 883 713 883 519 c 128,-1,7
 883 325 883 325 756.5 214.5 c 128,-1,8
 630 104 630 104 459 104 c 2,9,-1
 320 104 l 1,10,-1
 320 0 l 1,11,-1
 140 0 l 1,12,-1
 140 1040 l 1,0,-1
320 776 m 1,13,-1
 320 264 l 1,14,-1
 410 264 l 2,15,16
 540 264 540 264 619 330 c 128,-1,17
 698 396 698 396 698 521 c 128,-1,18
 698 646 698 646 619 711 c 128,-1,19
 540 776 540 776 410 776 c 2,20,-1
 320 776 l 1,13,-1
EndSplineSet
Ligature2: "'liga' Standard Ligatures in Latin lookup 0-1" t h
LCarets2: 1 0
EndChar

StartChar: uni0283
Encoding: 643 643 91
Width: 1284
Flags: W
LayerCount: 2
Fore
SplineSet
982 0 m 1,0,-1
 1144 0 l 1,1,-1
 1144 1040 l 1,2,-1
 140 1040 l 1,3,-1
 140 0 l 1,4,-1
 302 0 l 1,5,-1
 302 860 l 1,6,-1
 562 860 l 1,7,-1
 562 0 l 1,8,-1
 722 0 l 1,9,-1
 722 860 l 1,10,-1
 982 860 l 1,11,-1
 982 0 l 1,0,-1
EndSplineSet
Ligature2: "'liga' Standard Ligatures in Latin lookup 0-1" c h
Ligature2: "'liga' Standard Ligatures in Latin lookup 0-1" s h
LCarets2: 1 0
EndChar

StartChar: uni1E8A
Encoding: 7818 7818 92
Width: 1286
Flags: W
HStem: 0 21G<549.626 736.374> 0 21G<549.626 736.374> 1423 20G<25 221.01 1064.99 1261> 1423 20G<25 221.01 1064.99 1261>
LayerCount: 2
Fore
SplineSet
557 0 m 1,0,-1
 25 1443 l 1,1,-1
 214 1443 l 1,2,-1
 643 219 l 1,3,-1
 1072 1443 l 1,4,-1
 1261 1443 l 1,5,-1
 729 0 l 1,6,-1
 557 0 l 1,0,-1
EndSplineSet
EndChar

StartChar: uni1E8B
Encoding: 7819 7819 93
Width: 985
Flags: W
HStem: 0 21G<397.654 586.365> 0 21G<397.654 586.365> 1020 20G<23 210.737 772.287 962>
LayerCount: 2
Fore
SplineSet
-114 1166 m 1025,0,-1
23 1040 m 1,1,-1
 204 1040 l 1,2,-1
 492 185 l 1,3,-1
 779 1040 l 1,4,-1
 962 1040 l 1,5,-1
 579 0 l 1,6,-1
 405 0 l 1,7,-1
 23 1040 l 1,1,-1
EndSplineSet
LCarets2: 2 985 985
EndChar

StartChar: adieresis
Encoding: 228 228 94
Width: 1723
Flags: W
HStem: 0 180<302 1421> 802 62<1442.25 1602.05> 856 191<592.424 1133.07> 971 76<1405 1600> 1098 21G<1615.5 1695> 1170.5 61<1441.04 1601.61>
VStem: 140 162<180 579.852> 1421 162<180 580.379> 1626 69<1098 1149.2>
LayerCount: 2
Fore
SplineSet
302 180 m 1,0,-1
 1421 180 l 1,1,-1
 1421 347 l 2,2,3
 1421 591 1421 591 1277 723 c 128,-1,4
 1133 855 1133 855 863 856 c 128,-1,5
 593 857 593 857 447.5 726 c 128,-1,6
 302 595 302 595 302 347 c 2,7,-1
 302 180 l 1,0,-1
140 0 m 1,8,-1
 140 359 l 2,9,10
 140 680 140 680 330 859.5 c 128,-1,11
 520 1039 520 1039 848.5 1040 c 128,-1,12
 1177 1041 1177 1041 1363 887 c 1,13,14
 1330 940 1330 940 1330 1028 c 128,-1,15
 1330 1116 1330 1116 1381 1173.5 c 128,-1,16
 1432 1231 1432 1231 1511 1231.5 c 128,-1,17
 1590 1232 1590 1232 1637 1195 c 128,-1,18
 1684 1158 1684 1158 1695 1098 c 1,19,-1
 1626 1098 l 1,20,21
 1605 1172 1605 1172 1512 1170.5 c 128,-1,22
 1419 1169 1419 1169 1403 1047 c 1,23,-1
 1600 1047 l 1,24,-1
 1600 971 l 1,25,-1
 1405 971 l 1,26,27
 1414 924 1414 924 1443 894 c 128,-1,28
 1472 864 1472 864 1516.5 864 c 128,-1,29
 1561 864 1561 864 1589.5 884 c 128,-1,30
 1618 904 1618 904 1626 937 c 1,31,-1
 1694 937 l 1,32,33
 1686 880 1686 880 1639 841 c 128,-1,34
 1592 802 1592 802 1530 802 c 128,-1,35
 1468 802 1468 802 1428 824 c 1,36,37
 1583 649 1583 649 1583 359 c 2,38,-1
 1583 0 l 1,39,-1
 140 0 l 1,8,-1
EndSplineSet
EndChar

StartChar: odieresis
Encoding: 246 246 95
Width: 1417
Flags: W
HStem: 0 248<555.644 728.356> 860 180<302 562 722 982> 981 61.5<1185.01 1343.73> 1150 76<1147 1342> 1277 21G<1357.5 1437> 1350 60<1183.73 1342.91>
VStem: 140 162<0 860> 518 248<37.6442 210.356> 562 160<506 860> 982 162<0 860> 1368 69<1277 1329.16>
LayerCount: 2
Fore
SplineSet
1368 1277 m 1,0,1
 1347 1352 1347 1352 1254 1350 c 128,-1,2
 1161 1348 1161 1348 1145 1226 c 1,3,-1
 1342 1226 l 1,4,-1
 1342 1150 l 1,5,-1
 1147 1150 l 1,6,7
 1156 1103 1156 1103 1185 1073 c 128,-1,8
 1214 1043 1214 1043 1258.5 1042.5 c 128,-1,9
 1303 1042 1303 1042 1331.5 1062.5 c 128,-1,10
 1360 1083 1360 1083 1368 1116 c 1,11,-1
 1436 1116 l 1,12,13
 1428 1059 1428 1059 1381 1020 c 128,-1,14
 1334 981 1334 981 1263 981 c 128,-1,15
 1192 981 1192 981 1144 1021 c 1,16,-1
 1144 0 l 1,17,-1
 982 0 l 1,18,-1
 982 860 l 1,19,-1
 722 860 l 1,20,-1
 722 506 l 1,21,-1
 562 506 l 1,22,-1
 562 860 l 1,23,-1
 302 860 l 1,24,-1
 302 0 l 1,25,-1
 140 0 l 1,26,-1
 140 1040 l 1,27,-1
 1124 1040 l 1,28,29
 1072 1099 1072 1099 1072 1197 c 128,-1,30
 1072 1295 1072 1295 1123 1352.5 c 128,-1,31
 1174 1410 1174 1410 1253 1410 c 128,-1,32
 1332 1410 1332 1410 1379 1373.5 c 128,-1,33
 1426 1337 1426 1337 1437 1277 c 1,34,-1
 1368 1277 l 1,0,1
642 248 m 128,-1,36
 693 248 693 248 729.5 211.5 c 128,-1,37
 766 175 766 175 766 124 c 128,-1,38
 766 73 766 73 729.5 36.5 c 128,-1,39
 693 0 693 0 642 0 c 128,-1,40
 591 0 591 0 554.5 36.5 c 128,-1,41
 518 73 518 73 518 124 c 128,-1,42
 518 175 518 175 554.5 211.5 c 128,-1,35
 591 248 591 248 642 248 c 128,-1,36
EndSplineSet
EndChar

StartChar: Odieresis
Encoding: 214 214 96
Width: 1417
Flags: W
HStem: 0 248<555.644 728.356> 1263 180<302 562 722 982> 1384 62<1184.55 1344.29> 1553 76<1147 1342> 1752 61.5<1183.04 1344.71>
VStem: 140 162<0 1263> 518 248<37.6442 210.356> 562 160<506 1263> 982 162<0 1263> 1368 69<1680 1731.2>
LayerCount: 2
Fore
SplineSet
1368 1680 m 1,0,1
 1347 1754 1347 1754 1254 1752 c 128,-1,2
 1161 1750 1161 1750 1145 1629 c 1,3,-1
 1342 1629 l 1,4,-1
 1342 1553 l 1,5,-1
 1147 1553 l 1,6,7
 1156 1506 1156 1506 1185 1476 c 128,-1,8
 1214 1446 1214 1446 1258.5 1446 c 128,-1,9
 1303 1446 1303 1446 1331.5 1466 c 128,-1,10
 1360 1486 1360 1486 1368 1519 c 1,11,-1
 1436 1519 l 1,12,13
 1428 1462 1428 1462 1381 1423 c 128,-1,14
 1334 1384 1334 1384 1263 1384 c 128,-1,15
 1192 1384 1192 1384 1144 1424 c 1,16,-1
 1144 0 l 1,17,-1
 982 0 l 1,18,-1
 982 1263 l 1,19,-1
 722 1263 l 1,20,-1
 722 506 l 1,21,-1
 562 506 l 1,22,-1
 562 1263 l 1,23,-1
 302 1263 l 1,24,-1
 302 0 l 1,25,-1
 140 0 l 1,26,-1
 140 1443 l 1,27,-1
 1124 1443 l 1,28,29
 1072 1502 1072 1502 1072 1600 c 128,-1,30
 1072 1698 1072 1698 1123 1755.5 c 128,-1,31
 1174 1813 1174 1813 1253 1813.5 c 128,-1,32
 1332 1814 1332 1814 1379 1777 c 128,-1,33
 1426 1740 1426 1740 1437 1680 c 1,34,-1
 1368 1680 l 1,0,1
642 248 m 128,-1,36
 693 248 693 248 729.5 211.5 c 128,-1,37
 766 175 766 175 766 124 c 128,-1,38
 766 73 766 73 729.5 36.5 c 128,-1,39
 693 0 693 0 642 0 c 128,-1,40
 591 0 591 0 554.5 36.5 c 128,-1,41
 518 73 518 73 518 124 c 128,-1,42
 518 175 518 175 554.5 211.5 c 128,-1,35
 591 248 591 248 642 248 c 128,-1,36
EndSplineSet
EndChar

StartChar: comma
Encoding: 44 44 97
Width: 520
Flags: W
HStem: -287 509<184 232>
VStem: 87 282
LayerCount: 2
Fore
SplineSet
232 -287 m 1,0,-1
 87 -287 l 1,1,-1
 184 222 l 1,2,-1
 369 222 l 1,3,-1
 232 -287 l 1,0,-1
EndSplineSet
EndChar

StartChar: period
Encoding: 46 46 98
Width: 520
Flags: W
HStem: -10 228<180.035 339.965>
VStem: 146 228<24.0349 183.965>
LayerCount: 2
Fore
SplineSet
260 -10 m 128,-1,1
 212 -10 212 -10 179 23 c 128,-1,2
 146 56 146 56 146 104 c 128,-1,3
 146 152 146 152 179 185 c 128,-1,4
 212 218 212 218 260 218 c 128,-1,5
 308 218 308 218 341 185 c 128,-1,6
 374 152 374 152 374 104 c 128,-1,7
 374 56 374 56 341 23 c 128,-1,0
 308 -10 308 -10 260 -10 c 128,-1,1
EndSplineSet
EndChar

StartChar: ampersand
Encoding: 38 38 99
Width: 1453
Flags: W
HStem: 0 162<0 375 555 1147> 1281 162<64 375 555 1350>
VStem: 375 180<162 1001>
LayerCount: 2
Fore
SplineSet
1350 1443 m 1,0,-1
 1350 1281 l 1,1,-1
 555 1281 l 1,2,-1
 1378 121 l 1,3,-1
 1378 0 l 1,4,-1
 0 0 l 1,5,-1
 0 162 l 1,6,-1
 375 162 l 1,7,-1
 375 1283 l 1,8,-1
 64 1283 l 1,9,-1
 64 1443 l 1,10,-1
 1350 1443 l 1,0,-1
555 1001 m 1,11,-1
 555 162 l 1,12,-1
 1147 162 l 1,13,-1
 555 1001 l 1,11,-1
EndSplineSet
EndChar

StartChar: colon
Encoding: 58 58 100
Width: 520
Flags: W
HStem: -10 228<180.035 339.965> 726 228<180.035 339.965>
VStem: 146 228<24.0349 183.965 760.035 919.965>
LayerCount: 2
Fore
SplineSet
260 -10 m 128,-1,1
 212 -10 212 -10 179 23 c 128,-1,2
 146 56 146 56 146 104 c 128,-1,3
 146 152 146 152 179 185 c 128,-1,4
 212 218 212 218 260 218 c 128,-1,5
 308 218 308 218 341 185 c 128,-1,6
 374 152 374 152 374 104 c 128,-1,7
 374 56 374 56 341 23 c 128,-1,0
 308 -10 308 -10 260 -10 c 128,-1,1
260 726 m 128,-1,9
 212 726 212 726 179 759 c 128,-1,10
 146 792 146 792 146 840 c 128,-1,11
 146 888 146 888 179 921 c 128,-1,12
 212 954 212 954 260 954 c 128,-1,13
 308 954 308 954 341 921 c 128,-1,14
 374 888 374 888 374 840 c 128,-1,15
 374 792 374 792 341 759 c 128,-1,8
 308 726 308 726 260 726 c 128,-1,9
EndSplineSet
EndChar

StartChar: semicolon
Encoding: 59 59 101
Width: 520
Flags: W
HStem: 726 228<180.035 339.965>
VStem: 146 228<760.035 919.965>
LayerCount: 2
Fore
SplineSet
260 726 m 128,-1,1
 212 726 212 726 179 759 c 128,-1,2
 146 792 146 792 146 840 c 128,-1,3
 146 888 146 888 179 921 c 128,-1,4
 212 954 212 954 260 954 c 128,-1,5
 308 954 308 954 341 921 c 128,-1,6
 374 888 374 888 374 840 c 128,-1,7
 374 792 374 792 341 759 c 128,-1,0
 308 726 308 726 260 726 c 128,-1,1
232 -287 m 1,8,-1
 87 -287 l 1,9,-1
 184 222 l 1,10,-1
 369 222 l 1,11,-1
 232 -287 l 1,8,-1
EndSplineSet
EndChar

StartChar: uniF500
Encoding: 62720 62720 103
Width: 2511
Flags: W
HStem: 598 248<2075.64 2248.36> 1320 20G<1413.75 1468 2431.75 2486>
VStem: 2038 248<635.129 807.84>
LayerCount: 2
Fore
SplineSet
25 808 m 1,0,-1
 1468 1340 l 1,1,-1
 1468 1150 l 1,2,-1
 244 722 l 1,3,-1
 1468 292 l 1,4,-1
 1468 104 l 1,5,-1
 25 636 l 1,6,-1
 25 808 l 1,0,-1
2162 846 m 128,-1,8
 2213 846 2213 846 2249.5 809 c 128,-1,9
 2286 772 2286 772 2286 721 c 128,-1,10
 2286 670 2286 670 2249.5 634 c 128,-1,11
 2213 598 2213 598 2162 598 c 128,-1,12
 2111 598 2111 598 2074.5 634 c 128,-1,13
 2038 670 2038 670 2038 721 c 128,-1,14
 2038 772 2038 772 2074.5 809 c 128,-1,7
 2111 846 2111 846 2162 846 c 128,-1,8
1043 808 m 1,15,-1
 2486 1340 l 1,16,-1
 2486 1150 l 1,17,-1
 1262 722 l 1,18,-1
 2486 292 l 1,19,-1
 2486 104 l 1,20,-1
 1043 636 l 1,21,-1
 1043 808 l 1,15,-1
EndSplineSet
LCarets2: 1 0
Ligature2: "'liga' Standard Ligatures in Latin lookup 0-1" zero zero
EndChar

StartChar: uniF501
Encoding: 62721 62721 104
Width: 3529
Flags: W
HStem: 598 248<3093.64 3266.36> 1320 20G<1413.75 1468 2431.75 2486 3449.75 3504>
VStem: 3056 248<635.129 807.84>
LayerCount: 2
Fore
SplineSet
3180 846 m 128,-1,1
 3231 846 3231 846 3267.5 809 c 128,-1,2
 3304 772 3304 772 3304 721 c 128,-1,3
 3304 670 3304 670 3267.5 634 c 128,-1,4
 3231 598 3231 598 3180 598 c 128,-1,5
 3129 598 3129 598 3092.5 634 c 128,-1,6
 3056 670 3056 670 3056 721 c 128,-1,7
 3056 772 3056 772 3092.5 809 c 128,-1,0
 3129 846 3129 846 3180 846 c 128,-1,1
2061 808 m 1,8,-1
 3504 1340 l 1,9,-1
 3504 1150 l 1,10,-1
 2280 722 l 1,11,-1
 3504 292 l 1,12,-1
 3504 104 l 1,13,-1
 2061 636 l 1,14,-1
 2061 808 l 1,8,-1
25 808 m 1,15,-1
 1468 1340 l 1,16,-1
 1468 1150 l 1,17,-1
 244 722 l 1,18,-1
 1468 292 l 1,19,-1
 1468 104 l 1,20,-1
 25 636 l 1,21,-1
 25 808 l 1,15,-1
1043 808 m 1,22,-1
 2486 1340 l 1,23,-1
 2486 1150 l 1,24,-1
 1262 722 l 1,25,-1
 2486 292 l 1,26,-1
 2486 104 l 1,27,-1
 1043 636 l 1,28,-1
 1043 808 l 1,22,-1
EndSplineSet
LCarets2: 2 0 0
Ligature2: "'liga' Standard Ligatures in Latin lookup 0-1" zero zero zero
EndChar

StartChar: uniF502
Encoding: 62722 62722 105
Width: 2292
Flags: W
HStem: 0 166<458.194 869.601 1422.61 1834.26> 1447 20G<90 270 1056 1236 2022 2202>
VStem: 90 180<353.503 1467> 1056 180<349.729 1467> 2022 180<353.503 1467>
CounterMasks: 1 38
LayerCount: 2
Fore
SplineSet
1146 222 m 1,0,1
 992 0 992 0 664 0 c 0,2,3
 400 0 400 0 245 147.5 c 128,-1,4
 90 295 90 295 90 530 c 2,5,-1
 90 1467 l 1,6,-1
 270 1467 l 1,7,-1
 270 542 l 2,8,9
 270 375 270 375 374.5 270.5 c 128,-1,10
 479 166 479 166 663 166 c 128,-1,11
 847 166 847 166 951.5 270.5 c 128,-1,12
 1056 375 1056 375 1056 542 c 2,13,-1
 1056 1467 l 1,14,-1
 1236 1467 l 1,15,-1
 1236 542 l 2,16,17
 1236 375 1236 375 1340.5 270.5 c 128,-1,18
 1445 166 1445 166 1629 166 c 128,-1,19
 1813 166 1813 166 1917.5 270.5 c 128,-1,20
 2022 375 2022 375 2022 542 c 2,21,-1
 2022 1467 l 1,22,-1
 2202 1467 l 1,23,-1
 2202 530 l 2,24,25
 2202 295 2202 295 2047.5 147.5 c 128,-1,26
 1893 0 1893 0 1629 0 c 0,27,28
 1300 0 1300 0 1146 222 c 1,0,1
EndSplineSet
LCarets2: 1 0
Ligature2: "'liga' Standard Ligatures in Latin lookup 0-1" two two
EndChar

StartChar: uniF503
Encoding: 62723 62723 106
Width: 3258
Flags: W
HStem: 0 166<458.194 869.601 1422.51 1835.05 2388.61 2800.26> 1447 20G<90 270 1056 1236 2022 2202 2988 3168>
VStem: 90 180<353.503 1467> 1056 180<349.729 1467> 2022 180<349.729 1467> 2988 180<353.503 1467>
LayerCount: 2
Fore
SplineSet
2112 222 m 1,0,1
 1957 0 1957 0 1628.5 0 c 128,-1,2
 1300 0 1300 0 1146 222 c 1,3,4
 992 0 992 0 664 0 c 0,5,6
 400 0 400 0 245 147.5 c 128,-1,7
 90 295 90 295 90 530 c 2,8,-1
 90 1467 l 1,9,-1
 270 1467 l 1,10,-1
 270 542 l 2,11,12
 270 375 270 375 374.5 270.5 c 128,-1,13
 479 166 479 166 663 166 c 128,-1,14
 847 166 847 166 951.5 270.5 c 128,-1,15
 1056 375 1056 375 1056 542 c 2,16,-1
 1056 1467 l 1,17,-1
 1236 1467 l 1,18,-1
 1236 542 l 2,19,20
 1236 375 1236 375 1340.5 270.5 c 128,-1,21
 1445 166 1445 166 1629 166 c 128,-1,22
 1813 166 1813 166 1917.5 270.5 c 128,-1,23
 2022 375 2022 375 2022 542 c 2,24,-1
 2022 1467 l 1,25,-1
 2202 1467 l 1,26,-1
 2202 542 l 2,27,28
 2202 375 2202 375 2306.5 270.5 c 128,-1,29
 2411 166 2411 166 2595 166 c 128,-1,30
 2779 166 2779 166 2883.5 270.5 c 128,-1,31
 2988 375 2988 375 2988 542 c 2,32,-1
 2988 1467 l 1,33,-1
 3168 1467 l 1,34,-1
 3168 530 l 2,35,36
 3168 295 3168 295 3013.5 147.5 c 128,-1,37
 2859 0 2859 0 2595 0 c 0,38,39
 2266 0 2266 0 2112 222 c 1,0,1
EndSplineSet
LCarets2: 2 0 0
Ligature2: "'liga' Standard Ligatures in Latin lookup 0-1" two two two
EndChar

StartChar: uni01A9
Encoding: 425 425 107
Width: 1284
Flags: W
HStem: 1243 20G<302 562 722 982>
LayerCount: 2
Fore
SplineSet
982 0 m 1,0,-1
 1144 0 l 1,1,-1
 1144 1443 l 1,2,-1
 140 1443 l 1,3,-1
 140 0 l 1,4,-1
 302 0 l 1,5,-1
 302 1263 l 1,6,-1
 562 1263 l 1,7,-1
 562 0 l 1,8,-1
 722 0 l 1,9,-1
 722 1263 l 1,10,-1
 982 1263 l 1,11,-1
 982 0 l 1,0,-1
EndSplineSet
LCarets2: 1 0
Ligature2: "'liga' Standard Ligatures in Latin lookup 0-1" C h
Ligature2: "'liga' Standard Ligatures in Latin lookup 0-1" C H
Ligature2: "'liga' Standard Ligatures in Latin lookup 0-1" S h
Ligature2: "'liga' Standard Ligatures in Latin lookup 0-1" S H
EndChar

StartChar: uniF504
Encoding: 62724 62724 108
Width: 2292
Flags: W
HStem: 0 166<458.194 869.601 1422.61 1834.26> 414 248<576.644 749.356 1542.64 1715.36> 1447 20G<90 270 1056 1236 2022 2202>
VStem: 90 180<353.503 1467> 539 248<451.129 623.84> 1056 180<349.729 1467> 1505 248<451.129 623.84> 2022 180<353.503 1467>
LayerCount: 2
Fore
SplineSet
663 662 m 128,-1,1
 714 662 714 662 750.5 625 c 128,-1,2
 787 588 787 588 787 537 c 128,-1,3
 787 486 787 486 750.5 450 c 128,-1,4
 714 414 714 414 663 414 c 128,-1,5
 612 414 612 414 575.5 450 c 128,-1,6
 539 486 539 486 539 537 c 128,-1,7
 539 588 539 588 575.5 625 c 128,-1,0
 612 662 612 662 663 662 c 128,-1,1
1629 662 m 128,-1,9
 1680 662 1680 662 1716.5 625 c 128,-1,10
 1753 588 1753 588 1753 537 c 128,-1,11
 1753 486 1753 486 1716.5 450 c 128,-1,12
 1680 414 1680 414 1629 414 c 128,-1,13
 1578 414 1578 414 1541.5 450 c 128,-1,14
 1505 486 1505 486 1505 537 c 128,-1,15
 1505 588 1505 588 1541.5 625 c 128,-1,8
 1578 662 1578 662 1629 662 c 128,-1,9
1146 222 m 1,16,17
 992 0 992 0 664 0 c 0,18,19
 400 0 400 0 245 147.5 c 128,-1,20
 90 295 90 295 90 530 c 2,21,-1
 90 1467 l 1,22,-1
 270 1467 l 1,23,-1
 270 542 l 2,24,25
 270 375 270 375 374.5 270.5 c 128,-1,26
 479 166 479 166 663 166 c 128,-1,27
 847 166 847 166 951.5 270.5 c 128,-1,28
 1056 375 1056 375 1056 542 c 2,29,-1
 1056 1467 l 1,30,-1
 1236 1467 l 1,31,-1
 1236 542 l 2,32,33
 1236 375 1236 375 1340.5 270.5 c 128,-1,34
 1445 166 1445 166 1629 166 c 128,-1,35
 1813 166 1813 166 1917.5 270.5 c 128,-1,36
 2022 375 2022 375 2022 542 c 2,37,-1
 2022 1467 l 1,38,-1
 2202 1467 l 1,39,-1
 2202 530 l 2,40,41
 2202 295 2202 295 2047.5 147.5 c 128,-1,42
 1893 0 1893 0 1629 0 c 0,43,44
 1300 0 1300 0 1146 222 c 1,16,17
EndSplineSet
LCarets2: 1 0
Ligature2: "'liga' Standard Ligatures in Latin lookup 0-1" seven seven
EndChar

StartChar: uniF505
Encoding: 62725 62725 109
Width: 3258
Flags: W
HStem: 0 166<458.194 869.601 1422.51 1835.05 2388.61 2800.26> 414 248<576.644 749.356 1542.64 1715.36 2508.64 2681.36> 1447 20G<90 270 1056 1236 2022 2202 2988 3168>
VStem: 90 180<353.503 1467> 539 248<451.129 623.84> 1056 180<349.729 1467> 1505 248<451.129 623.84> 2022 180<349.729 1467> 2471 248<451.129 623.84> 2988 180<353.503 1467>
LayerCount: 2
Fore
SplineSet
663 662 m 128,-1,1
 714 662 714 662 750.5 625 c 128,-1,2
 787 588 787 588 787 537 c 128,-1,3
 787 486 787 486 750.5 450 c 128,-1,4
 714 414 714 414 663 414 c 128,-1,5
 612 414 612 414 575.5 450 c 128,-1,6
 539 486 539 486 539 537 c 128,-1,7
 539 588 539 588 575.5 625 c 128,-1,0
 612 662 612 662 663 662 c 128,-1,1
1629 662 m 128,-1,9
 1680 662 1680 662 1716.5 625 c 128,-1,10
 1753 588 1753 588 1753 537 c 128,-1,11
 1753 486 1753 486 1716.5 450 c 128,-1,12
 1680 414 1680 414 1629 414 c 128,-1,13
 1578 414 1578 414 1541.5 450 c 128,-1,14
 1505 486 1505 486 1505 537 c 128,-1,15
 1505 588 1505 588 1541.5 625 c 128,-1,8
 1578 662 1578 662 1629 662 c 128,-1,9
2595 662 m 128,-1,17
 2646 662 2646 662 2682.5 625 c 128,-1,18
 2719 588 2719 588 2719 537 c 128,-1,19
 2719 486 2719 486 2682.5 450 c 128,-1,20
 2646 414 2646 414 2595 414 c 128,-1,21
 2544 414 2544 414 2507.5 450 c 128,-1,22
 2471 486 2471 486 2471 537 c 128,-1,23
 2471 588 2471 588 2507.5 625 c 128,-1,16
 2544 662 2544 662 2595 662 c 128,-1,17
1146 222 m 1,24,25
 992 0 992 0 664 0 c 0,26,27
 400 0 400 0 245 147.5 c 128,-1,28
 90 295 90 295 90 530 c 2,29,-1
 90 1467 l 1,30,-1
 270 1467 l 1,31,-1
 270 542 l 2,32,33
 270 375 270 375 374.5 270.5 c 128,-1,34
 479 166 479 166 663 166 c 128,-1,35
 847 166 847 166 951.5 270.5 c 128,-1,36
 1056 375 1056 375 1056 542 c 2,37,-1
 1056 1467 l 1,38,-1
 1236 1467 l 1,39,-1
 1236 542 l 2,40,41
 1236 375 1236 375 1340.5 270.5 c 128,-1,42
 1445 166 1445 166 1629 166 c 128,-1,43
 1813 166 1813 166 1917.5 270.5 c 128,-1,44
 2022 375 2022 375 2022 542 c 2,45,-1
 2022 1467 l 1,46,-1
 2202 1467 l 1,47,-1
 2202 542 l 2,48,49
 2202 375 2202 375 2306.5 270.5 c 128,-1,50
 2411 166 2411 166 2595 166 c 128,-1,51
 2779 166 2779 166 2883.5 270.5 c 128,-1,52
 2988 375 2988 375 2988 542 c 2,53,-1
 2988 1467 l 1,54,-1
 3168 1467 l 1,55,-1
 3168 530 l 2,56,57
 3168 295 3168 295 3013.5 147.5 c 128,-1,58
 2859 0 2859 0 2595 0 c 0,59,60
 2266 0 2266 0 2112 222 c 1,61,62
 1957 0 1957 0 1628.5 0 c 128,-1,63
 1300 0 1300 0 1146 222 c 1,24,25
EndSplineSet
LCarets2: 2 0 0
Ligature2: "'liga' Standard Ligatures in Latin lookup 0-1" seven seven seven
EndChar

StartChar: uniF506
Encoding: 62726 62726 110
Width: 2292
Flags: W
HStem: 0 166<458.194 869.601 1422.61 1834.26> 414 248<576.644 749.356 1542.64 1715.36> 910 248<576.644 749.356 1542.64 1715.36> 1447 20G<90 270 1056 1236 2022 2202>
VStem: 90 180<353.503 1467> 539 248<451.129 623.84 947.129 1119.84> 1056 180<349.729 1467> 1505 248<451.129 623.84 947.129 1119.84> 2022 180<353.503 1467>
LayerCount: 2
Fore
SplineSet
663 1158 m 128,-1,1
 714 1158 714 1158 750.5 1121 c 128,-1,2
 787 1084 787 1084 787 1033 c 128,-1,3
 787 982 787 982 750.5 946 c 128,-1,4
 714 910 714 910 663 910 c 128,-1,5
 612 910 612 910 575.5 946 c 128,-1,6
 539 982 539 982 539 1033 c 128,-1,7
 539 1084 539 1084 575.5 1121 c 128,-1,0
 612 1158 612 1158 663 1158 c 128,-1,1
663 662 m 128,-1,9
 714 662 714 662 750.5 625 c 128,-1,10
 787 588 787 588 787 537 c 128,-1,11
 787 486 787 486 750.5 450 c 128,-1,12
 714 414 714 414 663 414 c 128,-1,13
 612 414 612 414 575.5 450 c 128,-1,14
 539 486 539 486 539 537 c 128,-1,15
 539 588 539 588 575.5 625 c 128,-1,8
 612 662 612 662 663 662 c 128,-1,9
1629 1158 m 128,-1,17
 1680 1158 1680 1158 1716.5 1121 c 128,-1,18
 1753 1084 1753 1084 1753 1033 c 128,-1,19
 1753 982 1753 982 1716.5 946 c 128,-1,20
 1680 910 1680 910 1629 910 c 128,-1,21
 1578 910 1578 910 1541.5 946 c 128,-1,22
 1505 982 1505 982 1505 1033 c 128,-1,23
 1505 1084 1505 1084 1541.5 1121 c 128,-1,16
 1578 1158 1578 1158 1629 1158 c 128,-1,17
1629 662 m 128,-1,25
 1680 662 1680 662 1716.5 625 c 128,-1,26
 1753 588 1753 588 1753 537 c 128,-1,27
 1753 486 1753 486 1716.5 450 c 128,-1,28
 1680 414 1680 414 1629 414 c 128,-1,29
 1578 414 1578 414 1541.5 450 c 128,-1,30
 1505 486 1505 486 1505 537 c 128,-1,31
 1505 588 1505 588 1541.5 625 c 128,-1,24
 1578 662 1578 662 1629 662 c 128,-1,25
1146 222 m 1,32,33
 992 0 992 0 664 0 c 0,34,35
 400 0 400 0 245 147.5 c 128,-1,36
 90 295 90 295 90 530 c 2,37,-1
 90 1467 l 1,38,-1
 270 1467 l 1,39,-1
 270 542 l 2,40,41
 270 375 270 375 374.5 270.5 c 128,-1,42
 479 166 479 166 663 166 c 128,-1,43
 847 166 847 166 951.5 270.5 c 128,-1,44
 1056 375 1056 375 1056 542 c 2,45,-1
 1056 1467 l 1,46,-1
 1236 1467 l 1,47,-1
 1236 542 l 2,48,49
 1236 375 1236 375 1340.5 270.5 c 128,-1,50
 1445 166 1445 166 1629 166 c 128,-1,51
 1813 166 1813 166 1917.5 270.5 c 128,-1,52
 2022 375 2022 375 2022 542 c 2,53,-1
 2022 1467 l 1,54,-1
 2202 1467 l 1,55,-1
 2202 530 l 2,56,57
 2202 295 2202 295 2047.5 147.5 c 128,-1,58
 1893 0 1893 0 1629 0 c 0,59,60
 1300 0 1300 0 1146 222 c 1,32,33
EndSplineSet
LCarets2: 1 0
Ligature2: "'liga' Standard Ligatures in Latin lookup 0-1" nine nine
EndChar

StartChar: uniF507
Encoding: 62727 62727 111
Width: 3258
Flags: W
HStem: 0 166<458.194 869.601 1422.51 1835.05 2388.61 2800.26> 414 248<576.644 749.356 1542.64 1715.36 2508.64 2681.36> 910 248<576.644 749.356 1542.64 1715.36 2508.64 2681.36> 1447 20G<90 270 1056 1236 2022 2202 2988 3168>
VStem: 90 180<353.503 1467> 539 248<451.129 623.84 947.129 1119.84> 1056 180<349.729 1467> 1505 248<451.129 623.84 947.129 1119.84> 2022 180<349.729 1467> 2471 248<451.129 623.84 947.129 1119.84> 2988 180<353.503 1467>
LayerCount: 2
Fore
SplineSet
663 1158 m 128,-1,1
 714 1158 714 1158 750.5 1121 c 128,-1,2
 787 1084 787 1084 787 1033 c 128,-1,3
 787 982 787 982 750.5 946 c 128,-1,4
 714 910 714 910 663 910 c 128,-1,5
 612 910 612 910 575.5 946 c 128,-1,6
 539 982 539 982 539 1033 c 128,-1,7
 539 1084 539 1084 575.5 1121 c 128,-1,0
 612 1158 612 1158 663 1158 c 128,-1,1
663 662 m 128,-1,9
 714 662 714 662 750.5 625 c 128,-1,10
 787 588 787 588 787 537 c 128,-1,11
 787 486 787 486 750.5 450 c 128,-1,12
 714 414 714 414 663 414 c 128,-1,13
 612 414 612 414 575.5 450 c 128,-1,14
 539 486 539 486 539 537 c 128,-1,15
 539 588 539 588 575.5 625 c 128,-1,8
 612 662 612 662 663 662 c 128,-1,9
1629 1158 m 128,-1,17
 1680 1158 1680 1158 1716.5 1121 c 128,-1,18
 1753 1084 1753 1084 1753 1033 c 128,-1,19
 1753 982 1753 982 1716.5 946 c 128,-1,20
 1680 910 1680 910 1629 910 c 128,-1,21
 1578 910 1578 910 1541.5 946 c 128,-1,22
 1505 982 1505 982 1505 1033 c 128,-1,23
 1505 1084 1505 1084 1541.5 1121 c 128,-1,16
 1578 1158 1578 1158 1629 1158 c 128,-1,17
1629 662 m 128,-1,25
 1680 662 1680 662 1716.5 625 c 128,-1,26
 1753 588 1753 588 1753 537 c 128,-1,27
 1753 486 1753 486 1716.5 450 c 128,-1,28
 1680 414 1680 414 1629 414 c 128,-1,29
 1578 414 1578 414 1541.5 450 c 128,-1,30
 1505 486 1505 486 1505 537 c 128,-1,31
 1505 588 1505 588 1541.5 625 c 128,-1,24
 1578 662 1578 662 1629 662 c 128,-1,25
2595 1158 m 128,-1,33
 2646 1158 2646 1158 2682.5 1121 c 128,-1,34
 2719 1084 2719 1084 2719 1033 c 128,-1,35
 2719 982 2719 982 2682.5 946 c 128,-1,36
 2646 910 2646 910 2595 910 c 128,-1,37
 2544 910 2544 910 2507.5 946 c 128,-1,38
 2471 982 2471 982 2471 1033 c 128,-1,39
 2471 1084 2471 1084 2507.5 1121 c 128,-1,32
 2544 1158 2544 1158 2595 1158 c 128,-1,33
2595 662 m 128,-1,41
 2646 662 2646 662 2682.5 625 c 128,-1,42
 2719 588 2719 588 2719 537 c 128,-1,43
 2719 486 2719 486 2682.5 450 c 128,-1,44
 2646 414 2646 414 2595 414 c 128,-1,45
 2544 414 2544 414 2507.5 450 c 128,-1,46
 2471 486 2471 486 2471 537 c 128,-1,47
 2471 588 2471 588 2507.5 625 c 128,-1,40
 2544 662 2544 662 2595 662 c 128,-1,41
1146 222 m 1,48,49
 992 0 992 0 664 0 c 0,50,51
 400 0 400 0 245 147.5 c 128,-1,52
 90 295 90 295 90 530 c 2,53,-1
 90 1467 l 1,54,-1
 270 1467 l 1,55,-1
 270 542 l 2,56,57
 270 375 270 375 374.5 270.5 c 128,-1,58
 479 166 479 166 663 166 c 128,-1,59
 847 166 847 166 951.5 270.5 c 128,-1,60
 1056 375 1056 375 1056 542 c 2,61,-1
 1056 1467 l 1,62,-1
 1236 1467 l 1,63,-1
 1236 542 l 2,64,65
 1236 375 1236 375 1340.5 270.5 c 128,-1,66
 1445 166 1445 166 1629 166 c 128,-1,67
 1813 166 1813 166 1917.5 270.5 c 128,-1,68
 2022 375 2022 375 2022 542 c 2,69,-1
 2022 1467 l 1,70,-1
 2202 1467 l 1,71,-1
 2202 542 l 2,72,73
 2202 375 2202 375 2306.5 270.5 c 128,-1,74
 2411 166 2411 166 2595 166 c 128,-1,75
 2779 166 2779 166 2883.5 270.5 c 128,-1,76
 2988 375 2988 375 2988 542 c 2,77,-1
 2988 1467 l 1,78,-1
 3168 1467 l 1,79,-1
 3168 530 l 2,80,81
 3168 295 3168 295 3013.5 147.5 c 128,-1,82
 2859 0 2859 0 2595 0 c 0,83,84
 2266 0 2266 0 2112 222 c 1,85,86
 1957 0 1957 0 1628.5 0 c 128,-1,87
 1300 0 1300 0 1146 222 c 1,48,49
EndSplineSet
LCarets2: 2 0 0
Ligature2: "'liga' Standard Ligatures in Latin lookup 0-1" nine nine nine
EndChar

StartChar: exclam
Encoding: 33 33 112
Width: 546
Flags: W
HStem: -10 228<193.035 353.48> 1423 20G<183 363> 1423 20G<183 363>
VStem: 159 228<24.035 184.48> 195 156<479 1443>
LayerCount: 2
Fore
SplineSet
183 1443 m 1,0,-1
 363 1443 l 1,1,-1
 351 479 l 1,2,-1
 195 479 l 1,3,-1
 183 1443 l 1,0,-1
354.5 23 m 128,-1,5
 322 -10 322 -10 273.5 -10 c 128,-1,6
 225 -10 225 -10 192 23 c 128,-1,7
 159 56 159 56 159 104.5 c 128,-1,8
 159 153 159 153 192 185.5 c 128,-1,9
 225 218 225 218 273.5 218 c 128,-1,10
 322 218 322 218 354.5 185.5 c 128,-1,11
 387 153 387 153 387 104.5 c 128,-1,4
 387 56 387 56 354.5 23 c 128,-1,5
EndSplineSet
EndChar

StartChar: exclamdown
Encoding: 161 161 113
Width: 546
Flags: W
HStem: 0 21G<183 363> 0 21G<183 363> 1227 228<193.035 353.48>
VStem: 159 228<1261.04 1421.48> 183 180<0 964>
LayerCount: 2
Fore
SplineSet
183 0 m 1,0,-1
 195 964 l 1,1,-1
 351 964 l 1,2,-1
 363 0 l 1,3,-1
 183 0 l 1,0,-1
354.5 1260 m 128,-1,5
 322 1227 322 1227 273.5 1227 c 128,-1,6
 225 1227 225 1227 192 1260 c 128,-1,7
 159 1293 159 1293 159 1341.5 c 128,-1,8
 159 1390 159 1390 192 1422.5 c 128,-1,9
 225 1455 225 1455 273.5 1455 c 128,-1,10
 322 1455 322 1455 354.5 1422.5 c 128,-1,11
 387 1390 387 1390 387 1341.5 c 128,-1,4
 387 1293 387 1293 354.5 1260 c 128,-1,5
EndSplineSet
EndChar

StartChar: question
Encoding: 63 63 114
Width: 1002
Flags: W
HStem: -10 228<377.035 537.48> 1066 21G<56 231> 1298 156<325.513 641.393>
VStem: 56 171<1066 1199.16> 343 228<24.035 184.48> 369 175<446 650.988> 730 186<940.334 1214.05>
LayerCount: 2
Fore
SplineSet
56 1066 m 1,0,1
 65 1237 65 1237 177.5 1345.5 c 128,-1,2
 290 1454 290 1454 484.5 1454 c 128,-1,3
 679 1454 679 1454 797.5 1351 c 128,-1,4
 916 1248 916 1248 916 1092 c 0,5,6
 916 873 916 873 707 747 c 0,7,8
 613 691 613 691 578.5 641 c 128,-1,9
 544 591 544 591 544 511 c 2,10,-1
 544 446 l 1,11,-1
 369 446 l 1,12,-1
 369 538 l 1,13,14
 367 721 367 721 561 838 c 0,15,16
 657 896 657 896 693.5 950 c 128,-1,17
 730 1004 730 1004 730 1090.5 c 128,-1,18
 730 1177 730 1177 662.5 1237.5 c 128,-1,19
 595 1298 595 1298 483.5 1298 c 128,-1,20
 372 1298 372 1298 303.5 1236 c 128,-1,21
 235 1174 235 1174 227 1066 c 1,22,-1
 56 1066 l 1,0,1
538.5 23 m 128,-1,24
 506 -10 506 -10 457.5 -10 c 128,-1,25
 409 -10 409 -10 376 23 c 128,-1,26
 343 56 343 56 343 104.5 c 128,-1,27
 343 153 343 153 376 185.5 c 128,-1,28
 409 218 409 218 457.5 218 c 128,-1,29
 506 218 506 218 538.5 185.5 c 128,-1,30
 571 153 571 153 571 104.5 c 128,-1,23
 571 56 571 56 538.5 23 c 128,-1,24
EndSplineSet
EndChar

StartChar: equal
Encoding: 61 61 115
Width: 1239
Flags: W
HStem: 301 154<131 1108> 684 154<131 1108>
LayerCount: 2
Fore
SplineSet
1108 301 m 1,0,-1
 131 301 l 1,1,-1
 131 455 l 1,2,-1
 1108 455 l 1,3,-1
 1108 301 l 1,0,-1
1108 684 m 1,4,-1
 131 684 l 1,5,-1
 131 838 l 1,6,-1
 1108 838 l 1,7,-1
 1108 684 l 1,4,-1
EndSplineSet
EndChar

StartChar: questiondown
Encoding: 191 191 116
Width: 1002
Flags: W
HStem: 0 156<360.607 674.066> 1242 228<452.035 612.48>
VStem: 86 186<240.298 514.03> 418 228<1276.04 1436.48> 457 175<798.819 1008> 775 171<255.753 389>
LayerCount: 2
Fore
SplineSet
946 389 m 1,0,1
 938 218 938 218 825 109 c 128,-1,2
 712 0 712 0 517.5 0 c 128,-1,3
 323 0 323 0 204.5 103 c 128,-1,4
 86 206 86 206 86 364 c 0,5,6
 86 580 86 580 295 707 c 0,7,8
 389 763 389 763 423 813 c 128,-1,9
 457 863 457 863 457 943 c 2,10,-1
 457 1008 l 1,11,-1
 632 1008 l 1,12,-1
 632 916 l 1,13,14
 633 818 633 818 585.5 746.5 c 128,-1,15
 538 675 538 675 442 616.5 c 128,-1,16
 346 558 346 558 309 504.5 c 128,-1,17
 272 451 272 451 272 364 c 128,-1,18
 272 277 272 277 339.5 216.5 c 128,-1,19
 407 156 407 156 518.5 156 c 128,-1,20
 630 156 630 156 698.5 218.5 c 128,-1,21
 767 281 767 281 775 389 c 1,22,-1
 946 389 l 1,0,1
613.5 1275 m 128,-1,24
 581 1242 581 1242 532.5 1242 c 128,-1,25
 484 1242 484 1242 451 1275 c 128,-1,26
 418 1308 418 1308 418 1356.5 c 128,-1,27
 418 1405 418 1405 451 1437.5 c 128,-1,28
 484 1470 484 1470 532.5 1470 c 128,-1,29
 581 1470 581 1470 613.5 1437.5 c 128,-1,30
 646 1405 646 1405 646 1356.5 c 128,-1,23
 646 1308 646 1308 613.5 1275 c 128,-1,24
EndSplineSet
EndChar

StartChar: multiply
Encoding: 215 215 117
Width: 1239
Flags: W
LayerCount: 2
Fore
SplineSet
620 475 m 1,0,-1
 312 168 l 1,1,-1
 208 272 l 1,2,-1
 515 580 l 1,3,-1
 208 888 l 1,4,-1
 312 992 l 1,5,-1
 620 685 l 1,6,-1
 927 992 l 1,7,-1
 1031 888 l 1,8,-1
 725 580 l 1,9,-1
 1031 272 l 1,10,-1
 927 168 l 1,11,-1
 620 475 l 1,0,-1
EndSplineSet
EndChar

StartChar: paragraph
Encoding: 182 182 118
Width: 1201
Flags: W
HStem: 1423 20G<474 774 921 1101> 1423 20G<474 774 921 1101>
VStem: 100 674<815.445 1196.66> 594 180<-220 575> 921 180<-220 1443>
LayerCount: 2
Fore
SplineSet
774 -220 m 1,0,-1
 594 -220 l 1,1,-1
 594 575 l 1,2,-1
 574 575 l 2,3,4
 372 575 372 575 236 696.5 c 128,-1,5
 100 818 100 818 100 1005.5 c 128,-1,6
 100 1193 100 1193 236.5 1318 c 128,-1,7
 373 1443 373 1443 575 1443 c 2,8,-1
 774 1443 l 1,9,-1
 774 -220 l 1,0,-1
921 -220 m 1,10,-1
 921 1443 l 1,11,-1
 1101 1443 l 1,12,-1
 1101 -220 l 1,13,-1
 921 -220 l 1,10,-1
EndSplineSet
EndChar

StartChar: degree
Encoding: 176 176 119
Width: 274
Flags: W
HStem: 1205 433
VStem: 32 180<1304.89 1638>
LayerCount: 2
Fore
SplineSet
122 1205 m 1,0,1
 90 1307 90 1307 32 1355 c 1,2,-1
 32 1638 l 1,3,-1
 212 1638 l 1,4,-1
 212 1355 l 1,5,6
 157 1307 157 1307 122 1205 c 1,0,1
EndSplineSet
EndChar

StartChar: parenleft
Encoding: 40 40 120
Width: 660
Flags: W
HStem: 1423 20G<332 620> 1423 20G<332 620>
VStem: 190 177<188.969 947.031>
LayerCount: 2
Fore
SplineSet
190 568 m 128,-1,1
 190 1082 190 1082 474 1443 c 1,2,-1
 620 1443 l 1,3,4
 513 1319 513 1319 440 1066 c 128,-1,5
 367 813 367 813 367 568 c 128,-1,6
 367 323 367 323 440 70 c 128,-1,7
 513 -183 513 -183 620 -307 c 1,8,-1
 474 -307 l 1,9,0
 190 54 190 54 190 568 c 128,-1,1
EndSplineSet
EndChar

StartChar: parenright
Encoding: 41 41 121
Width: 660
Flags: W
HStem: 1423 20G<40 289> 1423 20G<40 289>
VStem: 293 177<163.177 961.71>
LayerCount: 2
Fore
SplineSet
470 568 m 0,0,1
 470 243 470 243 385 41 c 128,-1,2
 300 -161 300 -161 186 -307 c 1,3,-1
 40 -307 l 1,4,5
 120 -214 120 -214 206.5 17 c 128,-1,6
 293 248 293 248 293 568 c 0,7,8
 293 992 293 992 117 1324 c 0,9,10
 77 1400 77 1400 40 1443 c 1,11,-1
 186 1443 l 1,12,13
 392 1182 392 1182 446 870 c 0,14,15
 470 730 470 730 470 568 c 0,0,1
EndSplineSet
EndChar

StartChar: plus
Encoding: 43 43 122
Width: 706
Flags: W
HStem: 714 288<348 490.976>
VStem: 348 288<714 856.976>
LayerCount: 2
Fore
SplineSet
30 858 m 1,0,1
 195 804 195 804 270 714 c 1,2,-1
 270 1002 l 1,3,4
 195 912 195 912 30 858 c 1,0,1
492 396 m 1,5,6
 546 561 546 561 636 636 c 1,7,-1
 348 636 l 1,8,9
 438 561 438 561 492 396 c 1,5,6
636 714 m 1,10,11
 636 822 636 822 546 912 c 128,-1,12
 456 1002 456 1002 348 1002 c 1,13,-1
 348 714 l 1,14,-1
 636 714 l 1,10,11
EndSplineSet
EndChar

StartChar: numbersign
Encoding: 35 35 123
Width: 1723
Flags: W
HStem: 0 180<302 801.582 1016 1421> 692 160<309 802.203> 1259.5 184.5<593.02 1130.79>
VStem: 140 162<180 692 852 983.531> 912 185<282.518 590.465> 1421 162<180 984.174>
LayerCount: 2
Fore
SplineSet
1097 437 m 0,0,1
 1097 288 1097 288 1016 180 c 1,2,-1
 1421 180 l 1,3,-1
 1421 750 l 1,4,5
 1420 995 1420 995 1276 1127 c 128,-1,6
 1132 1259 1132 1259 862.5 1259.5 c 128,-1,7
 593 1260 593 1260 447 1128 c 0,8,9
 333 1026 333 1026 309 852 c 1,10,-1
 675 852 l 2,11,12
 847 852 847 852 972 741 c 128,-1,13
 1097 630 1097 630 1097 437 c 0,0,1
624 180 m 2,14,15
 754 180 754 180 833 246 c 128,-1,16
 912 312 912 312 912 437 c 128,-1,17
 912 562 912 562 833 627 c 128,-1,18
 754 692 754 692 624 692 c 2,19,-1
 302 692 l 1,20,-1
 302 180 l 1,21,-1
 624 180 l 2,14,15
140 0 m 1,22,-1
 140 762 l 1,23,24
 141 1084 141 1084 331 1264 c 0,25,26
 522 1444 522 1444 862 1444 c 128,-1,27
 1202 1444 1202 1444 1392 1265 c 128,-1,28
 1582 1086 1582 1086 1583 762 c 1,29,-1
 1583 0 l 1,30,-1
 140 0 l 1,22,-1
EndSplineSet
EndChar

StartChar: bracketleft
Encoding: 91 91 124
Width: 660
Flags: W
HStem: -307 135<374 640> 1307 136<374 640>
VStem: 206 434<-307 -172 1307 1443> 206 168<-172 1307>
LayerCount: 2
Fore
SplineSet
206 1443 m 1,0,-1
 640 1443 l 1,1,-1
 640 1307 l 1,2,-1
 374 1307 l 1,3,-1
 374 -172 l 1,4,-1
 640 -172 l 1,5,-1
 640 -307 l 1,6,-1
 206 -307 l 1,7,-1
 206 1443 l 1,0,-1
EndSplineSet
EndChar

StartChar: bracketright
Encoding: 93 93 125
Width: 660
Flags: W
HStem: -307 135<20 286> 1307 136<20 286>
VStem: 20 434<-307 -172 1307 1443> 286 168<-172 1307>
LayerCount: 2
Fore
SplineSet
454 1443 m 1,0,-1
 454 -307 l 1,1,-1
 20 -307 l 1,2,-1
 20 -172 l 1,3,-1
 286 -172 l 1,4,-1
 286 1307 l 1,5,-1
 20 1307 l 1,6,-1
 20 1443 l 1,7,-1
 454 1443 l 1,0,-1
EndSplineSet
EndChar

StartChar: braceleft
Encoding: 123 123 126
Width: 660
Flags: W
HStem: -307 141<456.371 640> 473 190<20 182.048> 1302 141<456.371 640>
VStem: 238 164<-111.298 421.219 714.781 1247.3>
CounterMasks: 1 e0
LayerCount: 2
Fore
SplineSet
183 556 m 1,0,1
 402 534 402 534 402 322 c 2,2,-1
 402 59 l 2,3,4
 402 -61 402 -61 448 -113.5 c 128,-1,5
 494 -166 494 -166 600 -166 c 2,6,-1
 640 -166 l 1,7,-1
 640 -307 l 1,8,-1
 585 -307 l 2,9,10
 408 -307 408 -307 323 -222.5 c 128,-1,11
 238 -138 238 -138 238 37 c 2,12,-1
 238 260 l 2,13,14
 238 380 238 380 190 426.5 c 128,-1,15
 142 473 142 473 20 473 c 1,16,-1
 20 663 l 1,17,18
 142 663 142 663 190 709.5 c 128,-1,19
 238 756 238 756 238 876 c 2,20,-1
 238 1099 l 2,21,22
 238 1274 238 1274 323 1358.5 c 128,-1,23
 408 1443 408 1443 585 1443 c 2,24,-1
 640 1443 l 1,25,-1
 640 1302 l 1,26,-1
 600 1302 l 2,27,28
 494 1302 494 1302 448 1249.5 c 128,-1,29
 402 1197 402 1197 402 1077 c 2,30,-1
 402 814 l 2,31,32
 402 602 402 602 183 580 c 1,33,-1
 183 556 l 1,0,1
EndSplineSet
EndChar

StartChar: braceright
Encoding: 125 125 127
Width: 660
Flags: W
HStem: -307 141<20 203.064> 473 190<477.952 640> 1302 141<20 203.629>
VStem: 258 164<-110 420.531 714.781 1247.3>
CounterMasks: 1 e0
LayerCount: 2
Fore
SplineSet
477 556 m 1,0,-1
 477 580 l 1,1,2
 258 602 258 602 258 814 c 2,3,-1
 258 1077 l 2,4,5
 258 1197 258 1197 212 1249.5 c 128,-1,6
 166 1302 166 1302 60 1302 c 2,7,-1
 20 1302 l 1,8,-1
 20 1443 l 1,9,-1
 75 1443 l 2,10,11
 252 1443 252 1443 337 1358.5 c 128,-1,12
 422 1274 422 1274 422 1099 c 2,13,-1
 422 876 l 2,14,15
 422 756 422 756 470 709.5 c 128,-1,16
 518 663 518 663 640 663 c 1,17,-1
 640 473 l 1,18,19
 517 473 517 473 469.5 427 c 128,-1,20
 422 381 422 381 422 262 c 2,21,-1
 422 46 l 2,22,23
 422 -133 422 -133 336.5 -220 c 128,-1,24
 251 -307 251 -307 75 -307 c 2,25,-1
 20 -307 l 1,26,-1
 20 -166 l 1,27,-1
 60 -166 l 2,28,29
 165 -166 165 -166 211.5 -113.5 c 128,-1,30
 258 -61 258 -61 258 58 c 2,31,-1
 258 320 l 2,32,33
 258 535 258 535 477 556 c 1,0,-1
EndSplineSet
EndChar

StartChar: section
Encoding: 167 167 128
Width: 1407
Flags: W
LayerCount: 2
Fore
SplineSet
1198 1227 m 1,0,-1
 1048 1227 l 1,1,-1
 1024 913 l 1,2,-1
 391 913 l 1,3,4
 344 1080 344 1080 316 1287 c 1,5,-1
 1203 1287 l 1,6,-1
 1215 1443 l 1,7,-1
 90 1443 l 1,8,9
 114 1399 114 1399 131 1300 c 0,10,11
 227 755 227 755 372.5 531 c 128,-1,12
 518 307 518 307 723 154 c 128,-1,13
 928 1 928 1 1225 -99 c 1,14,-1
 1327 56 l 1,15,16
 807 179 807 179 529 589 c 0,17,18
 483 657 483 657 443 763 c 1,19,-1
 1162 763 l 1,20,-1
 1198 1227 l 1,0,-1
EndSplineSet
EndChar

StartChar: Adieresis
Encoding: 196 196 129
Width: 1723
Flags: W
HStem: 0 180<302 1421> 1205 61.5<1443.77 1601.64> 1259.5 190.5<592.335 1125.44> 1374 76<1405 1600> 1574 60<1441.73 1600.91>
VStem: 140 162<180 983.531> 1421 162<180 979.61> 1626 69<1501 1553.16>
LayerCount: 2
Fore
SplineSet
302 180 m 1,0,-1
 1421 180 l 1,1,-1
 1421 750 l 1,2,3
 1420 995 1420 995 1276 1127 c 128,-1,4
 1132 1259 1132 1259 862.5 1259.5 c 128,-1,5
 593 1260 593 1260 447.5 1129 c 128,-1,6
 302 998 302 998 302 750 c 2,7,-1
 302 180 l 1,0,-1
140 0 m 1,8,-1
 140 762 l 1,9,10
 141 1084 141 1084 331 1264 c 0,11,12
 522 1444 522 1444 849.5 1444 c 128,-1,13
 1177 1444 1177 1444 1363 1290 c 1,14,15
 1330 1343 1330 1343 1330 1431 c 128,-1,16
 1330 1519 1330 1519 1381 1576.5 c 128,-1,17
 1432 1634 1432 1634 1511 1634 c 128,-1,18
 1590 1634 1590 1634 1637 1597.5 c 128,-1,19
 1684 1561 1684 1561 1695 1501 c 1,20,-1
 1626 1501 l 1,21,22
 1605 1576 1605 1576 1512 1574 c 128,-1,23
 1419 1572 1419 1572 1403 1450 c 1,24,-1
 1600 1450 l 1,25,-1
 1600 1374 l 1,26,-1
 1405 1374 l 1,27,28
 1414 1327 1414 1327 1443 1297 c 128,-1,29
 1472 1267 1472 1267 1516.5 1266.5 c 128,-1,30
 1561 1266 1561 1266 1589.5 1286.5 c 128,-1,31
 1618 1307 1618 1307 1626 1340 c 1,32,-1
 1694 1340 l 1,33,34
 1686 1283 1686 1283 1639 1244 c 128,-1,35
 1592 1205 1592 1205 1530 1205 c 128,-1,36
 1468 1205 1468 1205 1428 1227 c 1,37,38
 1582 1054 1582 1054 1583 762 c 1,39,-1
 1583 0 l 1,40,-1
 140 0 l 1,8,-1
EndSplineSet
EndChar

StartChar: slash
Encoding: 47 47 130
Width: 660
Flags: W
HStem: 1423 20G<505.16 660> 1423 20G<505.16 660>
VStem: 0 660
LayerCount: 2
Fore
SplineSet
149 -307 m 1,0,-1
 0 -307 l 1,1,-1
 511 1443 l 1,2,-1
 660 1443 l 1,3,-1
 149 -307 l 1,0,-1
EndSplineSet
EndChar

StartChar: hyphen
Encoding: 45 45 131
Width: 706
Flags: W
HStem: 714 288<215.024 358>
VStem: 70 288<714 856.976>
LayerCount: 2
Fore
SplineSet
676 858 m 1,0,1
 511 804 511 804 436 714 c 1,2,-1
 436 1002 l 1,3,4
 511 912 511 912 676 858 c 1,0,1
214 396 m 1,5,6
 160 561 160 561 70 636 c 1,7,-1
 358 636 l 1,8,9
 268 561 268 561 214 396 c 1,5,6
70 714 m 1,10,11
 70 822 70 822 160 912 c 128,-1,12
 250 1002 250 1002 358 1002 c 1,13,-1
 358 714 l 1,14,-1
 70 714 l 1,10,11
EndSplineSet
EndChar

StartChar: at
Encoding: 64 64 134
Width: 2133
Flags: W
HStem: 0 162<100 936> 1281 162<344 1139>
LayerCount: 2
Fore
SplineSet
1213 996 m 1,0,-1
 986 162 l 1,1,-1
 1802 162 l 1,2,-1
 1213 996 l 1,0,-1
1081 1183 m 1,3,-1
 984 1321 l 1,4,-1
 647 162 l 1,5,-1
 821 162 l 1,6,-1
 1081 1183 l 1,3,-1
847 1443 m 1,7,-1
 2005 1443 l 1,8,-1
 2005 1281 l 1,9,-1
 1210 1281 l 1,10,-1
 2033 121 l 1,11,-1
 2033 0 l 1,12,-1
 438 0 l 1,13,-1
 45 1443 l 1,14,-1
 233 1443 l 1,15,-1
 522 265 l 1,16,-1
 847 1443 l 1,7,-1
EndSplineSet
EndChar

StartChar: percent
Encoding: 37 37 150
Width: 1434
Flags: W
HStem: 0 21G<255 472.16 1235.84 1453> 0 21G<255 472.16 1235.84 1453> 1423 20G<767 941> 1423 20G<767 941>
VStem: 767 174<822 1443>
LayerCount: 2
Fore
SplineSet
610 822 m 1,0,-1
 98 0 l 1,1,-1
 -30 0 l 1,2,-1
 490 822 l 1,3,-1
 610 822 l 1,0,-1
912 1119 m 1,4,-1
 912 822 l 1,5,-1
 1424 0 l 1,6,-1
 1219 0 l 1,7,-1
 825 648 l 1,8,-1
 431 0 l 1,9,-1
 226 0 l 1,10,-1
 738 822 l 1,11,-1
 738 1119 l 1,12,-1
 280 1119 l 1,13,-1
 280 1281 l 1,14,-1
 1370 1281 l 1,15,-1
 1370 1119 l 1,16,-1
 912 1119 l 1,4,-1
915 1638 m 1,17,-1
 1370 1638 l 1,18,-1
 1370 1476 l 1,19,-1
 915 1476 l 1,20,-1
 915 1638 l 1,17,-1
735 1476 m 1,21,-1
 280 1476 l 1,22,-1
 280 1638 l 1,23,-1
 735 1638 l 1,24,-1
 735 1476 l 1,21,-1
EndSplineSet
EndChar

StartChar: Eng
Encoding: 330 330 151
Width: 1704
Flags: W
HStem: 0 180<302 1404> 607 228<773.035 932.965> 1263 180<302 1404>
VStem: 140 162<180 1263> 739 228<641.035 800.965> 1404 160<180 1263>
LayerCount: 2
Fore
SplineSet
1564 1443 m 1,0,-1
 1564 0 l 1,1,-1
 140 0 l 1,2,-1
 140 1443 l 1,3,-1
 1564 1443 l 1,0,-1
302 1263 m 1,4,-1
 302 180 l 1,5,-1
 1404 180 l 1,6,-1
 1404 1263 l 1,7,-1
 302 1263 l 1,4,-1
853 607 m 128,-1,9
 805 607 805 607 772 640 c 128,-1,10
 739 673 739 673 739 721 c 128,-1,11
 739 769 739 769 772 802 c 128,-1,12
 805 835 805 835 853 835 c 128,-1,13
 901 835 901 835 934 802 c 128,-1,14
 967 769 967 769 967 721 c 128,-1,15
 967 673 967 673 934 640 c 128,-1,8
 901 607 901 607 853 607 c 128,-1,9
EndSplineSet
EndChar

StartChar: eng
Encoding: 331 331 152
Width: 1304
Flags: W
HStem: 0 180<252 1054> 406 228<573.035 732.965> 860 180<252 1054>
VStem: 90 162<180 860> 539 228<440.035 599.965> 1054 160<180 860>
CounterMasks: 1 e0
LayerCount: 2
Fore
SplineSet
1214 1040 m 1,0,-1
 1214 0 l 1,1,-1
 90 0 l 1,2,-1
 90 1040 l 1,3,-1
 1214 1040 l 1,0,-1
252 860 m 1,4,-1
 252 180 l 1,5,-1
 1054 180 l 1,6,-1
 1054 860 l 1,7,-1
 252 860 l 1,4,-1
653 406 m 128,-1,9
 605 406 605 406 572 439 c 128,-1,10
 539 472 539 472 539 520 c 128,-1,11
 539 568 539 568 572 601 c 128,-1,12
 605 634 605 634 653 634 c 128,-1,13
 701 634 701 634 734 601 c 128,-1,14
 767 568 767 568 767 520 c 128,-1,15
 767 472 767 472 734 439 c 128,-1,8
 701 406 701 406 653 406 c 128,-1,9
EndSplineSet
EndChar
